<svg xmlns="http://www.w3.org/2000/svg" width="267" height="323" viewBox="0 0 267 323">
  <defs>
    <filter id="a" width="200%" height="200%" x="-50%" y="-50%" filterUnits="objectBoundingBox">
      <feOffset dx="-1" dy="1" in="SourceAlpha" result="shadowOffsetOuter1"/>
      <feGaussianBlur stdDeviation="1.5" in="shadowOffsetOuter1" result="shadowBlurOuter1"/>
      <feColorMatrix values="0 0 0 0 0 0 0 0 0 0 0 0 0 0 0 0 0 0 0.5 0" in="shadowBlurOuter1" result="shadowMatrixOuter1"/>
      <feMerge>
        <feMergeNode in="shadowMatrixOuter1"/>
        <feMergeNode in="SourceGraphic"/>
      </feMerge>
    </filter>
  </defs>
  <g fill="none" fill-rule="evenodd" stroke="#622181" filter="url(#a)" transform="translate(4 3)">
    <path d="M247.385188,238.457502 C247.361906,238.457502 247.340414,238.461084 247.315341,238.461084 L142.515499,238.461084 C142.492216,238.461084 142.468934,238.457502 142.445651,238.457502 C135.477024,238.457502 129.826544,244.1044 129.826544,251.074818 C129.826544,258.043445 135.477024,263.692134 142.445651,263.692134 L142.447442,263.692134 L247.383397,263.692134 L247.385188,263.692134 C254.353815,263.692134 260.000714,258.043445 260.000714,251.074818 C260.000714,244.1044 254.353815,238.457502 247.385188,238.457502 Z" stroke-linecap="round"/>
    <path d="M179.90932,197.122134 C179.90932,197.145417 179.912902,197.166908 179.912902,197.191982 L179.912902,301.991824 C179.912902,302.015106 179.90932,302.038389 179.90932,302.061671 C179.90932,309.030298 185.556219,314.680779 192.526637,314.680779 C199.495264,314.680779 205.143953,309.030298 205.143953,302.061671 L205.143953,302.05988 L205.143953,197.123925 L205.143953,197.122134 C205.143953,190.153507 199.495264,184.506609 192.526637,184.506609 C185.556219,184.506609 179.90932,190.153507 179.90932,197.122134 Z" stroke-linecap="round"/>
    <path stroke-width="1.195" d="M154.225515,51.3075073 C154.225515,79.6064734 131.286893,102.543304 102.991509,102.543304 C74.6925429,102.543304 51.7521305,79.6064734 51.7521305,51.3075073 C51.7521305,23.0085412 74.6925429,0.0717107345 102.991509,0.0717107345 C131.286893,0.0717107345 154.225515,23.0085412 154.225515,51.3075073 Z"/>
    <path d="M205.064972,161.839855 C205.064972,127.168652 187.767876,96.5575559 161.347627,78.1070814 C153.238158,102.584138 130.179542,120.250172 102.982017,120.250172 C75.7809096,120.250172 52.7240847,102.585929 44.6146158,78.1088723 C18.1943672,96.5593469 0.895480226,127.170443 0.895480226,161.839855 C0.895480226,218.217499 46.6043729,263.926392 102.982017,263.926392"/>
    <path d="M102.980226,248.367244 C107.27674,248.367244 110.760158,251.848871 110.760158,256.147176 C110.760158,260.44369 107.27674,263.927108 102.980226,263.927108" stroke-linecap="round"/>
    <path d="M102.980226,232.808275 C107.27674,232.808275 110.760158,236.289902 110.760158,240.588207 C110.760158,244.884721 107.27674,248.36814 102.980226,248.36814" stroke-linecap="round"/>
    <path d="M102.980226,217.249306 C107.27674,217.249306 110.760158,220.730933 110.760158,225.029238 C110.760158,229.325753 107.27674,232.809171 102.980226,232.809171" stroke-linecap="round"/>
  </g>
</svg>
