<svg xmlns="http://www.w3.org/2000/svg" width="307" height="300" viewBox="0 0 307 300">
  <defs>
    <filter id="a" width="200%" height="200%" x="-50%" y="-50%" filterUnits="objectBoundingBox">
      <feOffset dx="-1" dy="1" in="SourceAlpha" result="shadowOffsetOuter1"/>
      <feGaussianBlur stdDeviation="1.5" in="shadowOffsetOuter1" result="shadowBlurOuter1"/>
      <feColorMatrix values="0 0 0 0 0 0 0 0 0 0 0 0 0 0 0 0 0 0 0.5 0" in="shadowBlurOuter1" result="shadowMatrixOuter1"/>
      <feMerge>
        <feMergeNode in="shadowMatrixOuter1"/>
        <feMergeNode in="SourceGraphic"/>
      </feMerge>
    </filter>
  </defs>
  <g fill="none" fill-rule="evenodd" stroke="#622181" filter="url(#a)" transform="translate(5 3)" stroke-linecap="round">
    <path d="M26.3676996,52.3662113 C26.4177747,52.3662113 26.4619586,52.3603245 26.5120337,52.3603245 L242.745175,52.3603245 C242.798196,52.3603245 242.848271,52.3662113 242.889509,52.3662113 C257.275793,52.3662113 268.93151,40.7250792 268.93151,26.3524755 C268.93151,11.9857585 257.275793,0.338739623 242.889509,0.338739623 L26.3765364,0.338739623 L26.3676996,0.338739623 C11.9902532,0.338739623 0.340427184,11.9857585 0.340427184,26.3524755 C0.340427184,40.7250792 11.9902532,52.3662113 26.3676996,52.3662113 Z"/>
    <path d="M0.340721744,26.3527698 C0.340721744,11.9860528 11.9905477,0.339033962 26.3679941,0.339033962 C40.7542773,0.339033962 52.4099945,11.9860528 52.4099945,26.3527698 C52.4099945,40.7253736 40.7542773,52.3665057 26.3679941,52.3665057 C11.9905477,52.3665057 0.340721744,40.7253736 0.340721744,26.3527698 Z"/>
    <path d="M7.73062905,26.3527698 C7.73062905,16.0685434 16.0754981,7.72990189 26.367405,7.72990189 C36.6652032,7.72990189 45.0100722,16.0685434 45.0100722,26.3527698 C45.0100722,36.642883 36.6652032,44.9785811 26.367405,44.9785811 C16.0754981,44.9785811 7.73062905,36.642883 7.73062905,26.3527698 Z"/>
    <path d="M14.5078527 26.3527698C14.5078527 19.8037132 19.8217051 14.4997132 26.3668159 14.4997132 32.9296003 14.4997132 38.2405071 19.8037132 38.2405071 26.3527698 38.2405071 32.9047698 32.9296003 38.2117132 26.3668159 38.2117132 19.8217051 38.2117132 14.5078527 32.9047698 14.5078527 26.3527698zM260.102385 107.474536C265.516388 102.709177 268.930332 95.7303849 268.930332 87.9509887 268.930332 73.5842717 257.274614 61.9372528 242.888331 61.9372528L26.3753581 61.9372528 26.3665213 61.9372528C11.9920205 61.9372528.339248947 73.5842717.339248947 87.9509887.339248947 102.323592 11.9920205 113.964725 26.3665213 113.964725 26.4165964 113.964725 26.463726 113.958838 26.5108555 113.958838L207.882887 113.958838"/>
    <path d="M0.340721744,87.951283 C0.340721744,73.584566 11.9905477,61.9375472 26.3679941,61.9375472 C40.7542773,61.9375472 52.4099945,73.584566 52.4099945,87.951283 C52.4099945,102.323887 40.7542773,113.965019 26.3679941,113.965019 C11.9905477,113.965019 0.340721744,102.323887 0.340721744,87.951283 Z"/>
    <path d="M7.73062905,87.951283 C7.73062905,77.6670566 16.0754981,69.3284151 26.367405,69.3284151 C36.6652032,69.3284151 45.0100722,77.6670566 45.0100722,87.951283 C45.0100722,98.2413962 36.6652032,106.577094 26.367405,106.577094 C16.0754981,106.577094 7.73062905,98.2413962 7.73062905,87.951283 Z"/>
    <path d="M14.5078527 87.951283C14.5078527 81.4022264 19.8217051 76.0982264 26.3668159 76.0982264 32.9296003 76.0982264 38.2405071 81.4022264 38.2405071 87.951283 38.2405071 94.503283 32.9296003 99.8102264 26.3668159 99.8102264 19.8217051 99.8102264 14.5078527 94.503283 14.5078527 87.951283zM196.473127 123.536649L26.3768309 123.536649 26.3679941 123.536649C11.9905477 123.536649.340721744 135.183668.340721744 149.550385.340721744 163.922989 11.9905477 175.564121 26.3679941 175.564121 26.4180692 175.564121 26.4622532 175.558234 26.5123283 175.558234L181.7481 175.558234"/>
    <path d="M0.340721744,149.550091 C0.340721744,135.183374 11.9905477,123.536355 26.3679941,123.536355 C40.7542773,123.536355 52.4099945,135.183374 52.4099945,149.550091 C52.4099945,163.922694 40.7542773,175.563826 26.3679941,175.563826 C11.9905477,175.563826 0.340721744,163.922694 0.340721744,149.550091 Z"/>
    <path d="M7.73062905,149.550091 C7.73062905,139.265864 16.0754981,130.927223 26.367405,130.927223 C36.6652032,130.927223 45.0100722,139.265864 45.0100722,149.550091 C45.0100722,159.840204 36.6652032,168.175902 26.367405,168.175902 C16.0754981,168.175902 7.73062905,159.840204 7.73062905,149.550091 Z"/>
    <path d="M14.5078527 149.550091C14.5078527 143.001034 19.8217051 137.697034 26.3668159 137.697034 32.9296003 137.697034 38.2405071 143.001034 38.2405071 149.550091 38.2405071 156.102091 32.9296003 161.409034 26.3668159 161.409034 19.8217051 161.409034 14.5078527 156.102091 14.5078527 149.550091zM122.769936 279.987872C122.769936 273.438815 128.083788 268.134815 134.628899 268.134815 141.191683 268.134815 146.50259 273.438815 146.50259 279.987872 146.50259 286.539872 141.191683 291.846815 134.628899 291.846815 128.083788 291.846815 122.769936 286.539872 122.769936 279.987872zM299.384832 163.789947C299.384832 196.414551 272.924558 222.855079 240.275589 222.855079 207.620729 222.855079 181.151618 196.414551 181.151618 163.789947 181.151618 131.15357 207.620729 104.724815 240.275589 104.724815 272.924558 104.724815 299.384832 131.15357 299.384832 163.789947z"/>
    <path d="M258.552119 192.528091C253.270668 195.892392 246.999497 197.837977 240.27176 197.837977 221.446466 197.837977 206.194178 182.594128 206.194178 163.78877 206.194178 153.307336 210.927748 143.935562 218.377156 137.689675M226.392119 132.682958C230.630829 130.790355 235.329052 129.742506 240.27176 129.742506 259.094108 129.742506 274.346396 144.977525 274.346396 163.78877 274.346396 172.851487 270.802846 181.087109 265.02359 187.191713M134.629783 268.133932L134.629783 175.564121M122.769936 279.987872L.342194541 279.987872M146.501412 279.987872L268.929153 279.987872M208.594837 137.695857L218.377156 137.68997M218.37804 137.690264L218.37804 146.429208M265.024179 187.190536L264.007949 177.701026M265.024179 187.190536L274.871301 185.704121"/>
  </g>
</svg>
