<svg xmlns="http://www.w3.org/2000/svg" width="204" height="307" viewBox="0 0 204 307">
  <defs>
    <filter id="a" width="200%" height="200%" x="-50%" y="-50%" filterUnits="objectBoundingBox">
      <feOffset dx="-1" dy="1" in="SourceAlpha" result="shadowOffsetOuter1"/>
      <feGaussianBlur stdDeviation="1.5" in="shadowOffsetOuter1" result="shadowBlurOuter1"/>
      <feColorMatrix values="0 0 0 0 0 0 0 0 0 0 0 0 0 0 0 0 0 0 0.5 0" in="shadowBlurOuter1" result="shadowMatrixOuter1"/>
      <feMerge>
        <feMergeNode in="shadowMatrixOuter1"/>
        <feMergeNode in="SourceGraphic"/>
      </feMerge>
    </filter>
  </defs>
  <g fill="none" fill-rule="evenodd" stroke="#FFFFFF" filter="url(#a)" transform="translate(4 2)" stroke-linecap="round">
    <path d="M188.230156 38.4507692L154.939874 38.4507692C155.808756 40.7261538 156.306792 43.1769231 156.306792 45.7476923 156.306792 57.2953846 146.72917 66.6553846 134.912683 66.6553846L62.7725012 66.6553846C50.9560142 66.6553846 41.3753273 57.2953846 41.3753273 45.7476923 41.3753273 43.1769231 41.8733636 40.7261538 42.7422455 38.4507692L9.45502849 38.4507692C4.65702295 38.4507692.766209764 42.3553846.766209764 47.1723077L.766209764 291.267692C.766209764 296.084615 4.65702295 299.989231 9.45502849 299.989231L188.230156 299.989231C193.028161 299.989231 196.915909 296.084615 196.915909 291.267692L196.915909 47.1723077C196.915909 42.3553846 193.028161 38.4507692 188.230156 38.4507692zM154.940487 38.4507692C151.907828 30.5076923 144.098619 24.84 134.913296 24.84L123.584118 24.84C123.584118 29.8938462 122.025648 34.5784615 119.376094 38.4507692M79.8428885 38.4507692C77.1933351 34.5784615 75.633332 29.8938462 75.633332 24.84L62.7717349 24.84C53.5864123 24.84 45.77567 30.5076923 42.7414793 38.4507692"/>
    <path d="M123.584272 24.8404615L123.584272 24.8389231C123.584272 11.5450769 112.851205.769692308 99.6080356.769692308 86.3694633.769692308 75.633332 11.5450769 75.633332 24.8389231L75.633332 24.8404615M79.8428885 38.4507692C84.1643116 44.7646154 91.401929 48.9107692 99.6065032 48.9107692 107.815675 48.9107692 115.054824 44.7646154 119.376247 38.4507692M169.616622 108.151846C169.595168 108.151846 169.578311 108.154923 169.556857 108.154923L79.8857962 108.154923C79.8658748 108.154923 79.8444209 108.151846 79.8260319 108.151846 73.8618551 108.151846 69.0270715 113.002615 69.0270715 118.990308 69.0270715 124.976462 73.8618551 129.828769 79.8260319 129.828769L169.613557 129.828769 169.616622 129.828769C175.579266 129.828769 180.409452 124.976462 180.409452 118.990308 180.409452 113.002615 175.579266 108.151846 169.616622 108.151846z"/>
    <path d="M180.409452,118.990154 C180.409452,124.976308 175.579266,129.828615 169.616622,129.828615 C163.650913,129.828615 158.817661,124.976308 158.817661,118.990154 C158.817661,113.002462 163.650913,108.151692 169.616622,108.151692 C175.579266,108.151692 180.409452,113.002462 180.409452,118.990154 Z"/>
    <path d="M174.534156 118.990154C174.534156 121.717846 172.332069 123.930154 169.616622 123.930154 166.896577 123.930154 164.692958 121.717846 164.692958 118.990154 164.692958 116.262462 166.896577 114.050154 169.616622 114.050154 172.332069 114.050154 174.534156 116.262462 174.534156 118.990154zM41.3753273 118.990154C41.3753273 124.976308 36.5451409 129.828615 30.5824965 129.828615 24.6167873 129.828615 19.7835361 124.976308 19.7835361 118.990154 19.7835361 113.002462 24.6167873 108.151692 30.5824965 108.151692 36.5451409 108.151692 41.3753273 113.002462 41.3753273 118.990154zM169.616622 141.610308C169.595168 141.610308 169.578311 141.613385 169.556857 141.613385L79.8857962 141.613385C79.8658748 141.613385 79.8444209 141.610308 79.8260319 141.610308 73.8618551 141.610308 69.0270715 146.461077 69.0270715 152.448769 69.0270715 158.434923 73.8618551 163.287231 79.8260319 163.287231L169.613557 163.287231 169.616622 163.287231C175.579266 163.287231 180.409452 158.434923 180.409452 152.448769 180.409452 146.461077 175.579266 141.610308 169.616622 141.610308z"/>
    <path d="M180.409452,152.448615 C180.409452,158.434769 175.579266,163.287077 169.616622,163.287077 C163.650913,163.287077 158.817661,158.434769 158.817661,152.448615 C158.817661,146.460923 163.650913,141.610154 169.616622,141.610154 C175.579266,141.610154 180.409452,146.460923 180.409452,152.448615 Z"/>
    <path d="M174.534156 152.448615C174.534156 155.176308 172.332069 157.388615 169.616622 157.388615 166.896577 157.388615 164.692958 155.176308 164.692958 152.448615 164.692958 149.720923 166.896577 147.508615 169.616622 147.508615 172.332069 147.508615 174.534156 149.720923 174.534156 152.448615zM41.3753273 152.448615C41.3753273 158.434769 36.5451409 163.287077 30.5824965 163.287077 24.6167873 163.287077 19.7835361 158.434769 19.7835361 152.448615 19.7835361 146.460923 24.6167873 141.610154 30.5824965 141.610154 36.5451409 141.610154 41.3753273 146.460923 41.3753273 152.448615zM169.616622 175.068923C169.595168 175.068923 169.578311 175.072 169.556857 175.072L79.8857962 175.072C79.8658748 175.072 79.8444209 175.068923 79.8260319 175.068923 73.8618551 175.068923 69.0270715 179.919692 69.0270715 185.907385 69.0270715 191.893538 73.8618551 196.745846 79.8260319 196.745846L169.613557 196.745846 169.616622 196.745846C175.579266 196.745846 180.409452 191.893538 180.409452 185.907385 180.409452 179.919692 175.579266 175.068923 169.616622 175.068923z"/>
    <path d="M90.6193223,185.907231 C90.6193223,191.893385 85.789136,196.745692 79.8264916,196.745692 C73.8607824,196.745692 69.0275312,191.893385 69.0275312,185.907231 C69.0275312,179.919538 73.8607824,175.068769 79.8264916,175.068769 C85.789136,175.068769 90.6193223,179.919538 90.6193223,185.907231 Z"/>
    <path d="M84.7440259 185.907231C84.7440259 188.634923 82.541939 190.847231 79.8264916 190.847231 77.1064469 190.847231 74.9028277 188.634923 74.9028277 185.907231 74.9028277 183.179538 77.1064469 180.967231 79.8264916 180.967231 82.541939 180.967231 84.7440259 183.179538 84.7440259 185.907231zM41.3753273 185.907231C41.3753273 191.893385 36.5451409 196.745692 30.5824965 196.745692 24.6167873 196.745692 19.7835361 191.893385 19.7835361 185.907231 19.7835361 179.919538 24.6167873 175.068769 30.5824965 175.068769 36.5451409 175.068769 41.3753273 179.919538 41.3753273 185.907231zM169.616622 208.527385C169.595168 208.527385 169.578311 208.530462 169.556857 208.530462L79.8857962 208.530462C79.8658748 208.530462 79.8444209 208.527385 79.8260319 208.527385 73.8618551 208.527385 69.0270715 213.378154 69.0270715 219.365846 69.0270715 225.352 73.8618551 230.204308 79.8260319 230.204308L169.613557 230.204308 169.616622 230.204308C175.579266 230.204308 180.409452 225.352 180.409452 219.365846 180.409452 213.378154 175.579266 208.527385 169.616622 208.527385z"/>
    <path d="M180.409452,219.365692 C180.409452,225.351846 175.579266,230.204154 169.616622,230.204154 C163.650913,230.204154 158.817661,225.351846 158.817661,219.365692 C158.817661,213.378 163.650913,208.527231 169.616622,208.527231 C175.579266,208.527231 180.409452,213.378 180.409452,219.365692 Z"/>
    <path d="M174.534156 219.365692C174.534156 222.093385 172.332069 224.305692 169.616622 224.305692 166.896577 224.305692 164.692958 222.093385 164.692958 219.365692 164.692958 216.638 166.896577 214.425692 169.616622 214.425692 172.332069 214.425692 174.534156 216.638 174.534156 219.365692zM41.3753273 219.365692C41.3753273 225.351846 36.5451409 230.204154 30.5824965 230.204154 24.6167873 230.204154 19.7835361 225.351846 19.7835361 219.365692 19.7835361 213.378 24.6167873 208.527231 30.5824965 208.527231 36.5451409 208.527231 41.3753273 213.378 41.3753273 219.365692zM169.616622 241.986C169.595168 241.986 169.578311 241.989077 169.556857 241.989077L79.8857962 241.989077C79.8658748 241.989077 79.8444209 241.986 79.8260319 241.986 73.8618551 241.986 69.0270715 246.836769 69.0270715 252.824462 69.0270715 258.810615 73.8618551 263.662923 79.8260319 263.662923L169.613557 263.662923 169.616622 263.662923C175.579266 263.662923 180.409452 258.810615 180.409452 252.824462 180.409452 246.836769 175.579266 241.986 169.616622 241.986z"/>
    <path d="M90.6193223,252.824308 C90.6193223,258.810462 85.789136,263.662769 79.8264916,263.662769 C73.8607824,263.662769 69.0275312,258.810462 69.0275312,252.824308 C69.0275312,246.836615 73.8607824,241.985846 79.8264916,241.985846 C85.789136,241.985846 90.6193223,246.836615 90.6193223,252.824308 Z"/>
    <path d="M84.7440259 252.824308C84.7440259 255.552 82.541939 257.764308 79.8264916 257.764308 77.1064469 257.764308 74.9028277 255.552 74.9028277 252.824308 74.9028277 250.096615 77.1064469 247.884308 79.8264916 247.884308 82.541939 247.884308 84.7440259 250.096615 84.7440259 252.824308zM41.3753273 252.824308C41.3753273 258.810462 36.5451409 263.662769 30.5824965 263.662769 24.6167873 263.662769 19.7835361 258.810462 19.7835361 252.824308 19.7835361 246.836615 24.6167873 241.985846 30.5824965 241.985846 36.5451409 241.985846 41.3753273 246.836615 41.3753273 252.824308z"/>
  </g>
</svg>
