<svg xmlns="http://www.w3.org/2000/svg" width="308" height="289" viewBox="0 0 308 289">
  <defs>
    <filter id="a" width="200%" height="200%" x="-50%" y="-50%" filterUnits="objectBoundingBox">
      <feOffset dx="-1" dy="1" in="SourceAlpha" result="shadowOffsetOuter1"/>
      <feGaussianBlur stdDeviation="1.5" in="shadowOffsetOuter1" result="shadowBlurOuter1"/>
      <feColorMatrix values="0 0 0 0 0 0 0 0 0 0 0 0 0 0 0 0 0 0 0.5 0" in="shadowBlurOuter1" result="shadowMatrixOuter1"/>
      <feMerge>
        <feMergeNode in="shadowMatrixOuter1"/>
        <feMergeNode in="SourceGraphic"/>
      </feMerge>
    </filter>
  </defs>
  <g fill="none" fill-rule="evenodd" stroke="#FFFFFF" filter="url(#a)" transform="translate(5 3)">
    <path d="M57.5132078 37.6345479C57.5132078 53.5194686 44.642021 66.3978234 28.7687879 66.3978234 12.8955548 66.3978234.0266754709 53.5194686.0266754709 37.6345479.0266754709 21.747318 12.8955548 8.87127237 28.7687879 8.87127237 44.642021 8.87127237 57.5132078 21.747318 57.5132078 37.6345479zM299.592588 37.6345479C299.592588 53.5194686 286.723709 66.3978234 270.850476 66.3978234 254.974935 66.3978234 242.108364 53.5194686 242.108364 37.6345479 242.108364 21.747318 254.974935 8.87127237 270.850476 8.87127237 286.723709 8.87127237 299.592588 21.747318 299.592588 37.6345479z"/>
    <path d="M299.637585,37.1812538 L299.637585,231.125536 C299.637585,238.256316 294.08576,244.043148 287.239433,244.043148 L12.4079819,244.043148 C5.5639625,244.043148 0.0121382753,238.256316 0.0121382753,231.125536 L0.0121382753,37.4075545" stroke-linecap="round"/>
    <path d="M286.457425,243.939465 L286.457425,269.155824 C286.457425,275.656195 281.392481,280.935004 275.150717,280.935004 L24.4994674,280.935004 C18.2577032,280.935004 13.1927597,275.656195 13.1927597,269.155824 L13.1927597,244.144983" stroke-linecap="round"/>
    <path d="M229.184797 46.2286618C219.546405 46.2286618 219.546405.0125252713 209.908014.0125252713 200.27193.0125252713 200.27193 46.2286618 190.633538 46.2286618 180.995147 46.2286618 180.995147.0125252713 171.354448.0125252713 161.716057.0125252713 161.716057 46.2286618 152.075358 46.2286618 142.430044 46.2286618 142.430044.0125252713 132.789345.0125252713 123.146338.0125252713 123.146338 46.2286618 113.50564 46.2286618 103.858018 46.2286618 103.858018.0125252713 94.2127043.0125252713 84.5627754.0125252713 84.5627754 46.2286618 74.9174615 46.2286618M206.513233 124.943882C215.461684 136.556801 220.785067 151.111628 220.785067 166.911108M83.314884 166.910877C83.314884 128.920077 114.089896 98.1247139 152.050437 98.1247139 167.95136 98.1247139 182.587778 103.528219 194.233686 112.59641"/>
    <path d="M205.400099 113.542254C202.236528 110.378664 197.11159 110.378664 193.948019 113.542254 193.941097 113.551491 193.934174 113.560728 193.927252 113.567656L146.33755 161.192398C146.332935 161.197017 146.32832 161.201635 146.323705 161.203944 143.160134 164.367535 143.160134 169.496247 146.323705 172.664456 149.487275 175.828047 154.612214 175.828047 157.775784 172.664456 157.775784 172.664456 157.775784 172.662147 157.778092 172.662147L205.390869 125.012003C205.390869 125.012003 205.397791 125.007385 205.402406 125.002766 208.563669 121.839176 208.563669 116.705845 205.400099 113.542254zM137.973586 269.737509L180.269902 269.737509C184.019576 269.737509 187.056235 266.698614 187.056235 262.948489 187.056235 259.196055 184.019576 256.154851 180.269902 256.154851 180.258365 256.154851 180.246828 256.15716 180.232983 256.15716L137.765912 256.15716M123.862815 256.157391C123.84897 256.157391 123.837432 256.155082 123.825895 256.155082 120.076221 256.155082 117.039563 259.193977 117.039563 262.946411 117.039563 266.696536 120.076221 269.73774 123.825895 269.73774M133.194079 256.157391C133.180234 256.157391 133.168696 256.155082 133.154852 256.155082 129.407486 256.155082 126.370827 259.193977 126.370827 262.946411 126.370827 266.696536 129.407486 269.73774 133.154852 269.73774L133.157159 269.73774" stroke-linecap="round"/>
  </g>
</svg>
