<svg xmlns="http://www.w3.org/2000/svg" width="244" height="307" viewBox="0 0 244 307">
  <defs>
    <filter id="a" width="200%" height="200%" x="-50%" y="-50%" filterUnits="objectBoundingBox">
      <feOffset dx="-1" dy="1" in="SourceAlpha" result="shadowOffsetOuter1"/>
      <feGaussianBlur stdDeviation="1.5" in="shadowOffsetOuter1" result="shadowBlurOuter1"/>
      <feColorMatrix values="0 0 0 0 0 0 0 0 0 0 0 0 0 0 0 0 0 0 0.5 0" in="shadowBlurOuter1" result="shadowMatrixOuter1"/>
      <feMerge>
        <feMergeNode in="shadowMatrixOuter1"/>
        <feMergeNode in="SourceGraphic"/>
      </feMerge>
    </filter>
  </defs>
  <g fill="none" fill-rule="evenodd" stroke="#622181" filter="url(#a)" transform="translate(4.136 2)" stroke-linecap="round">
    <path d="M236.61385,37.8354013 C236.61385,37.8354013 221.434512,299.818997 118.75106,299.818997 C12.6309066,299.818997 0.888271076,37.8354013 0.888271076,37.8354013 C0.888271076,37.8354013 32.6332651,30.8656681 63.1203031,20.8927721 C93.9273924,10.8120703 118.75106,0.926445756 118.75106,0.926445756 C118.75106,0.926445756 140.136315,10.0608518 169.873714,20.8927721 C197.687381,31.0213876 236.61385,37.8354013 236.61385,37.8354013 Z"/>
    <path d="M84.5757293,64.2303782 C84.5757293,64.2697359 84.5842868,64.3142272 84.5842868,64.3570073 L84.5842868,259.146762 C84.5842868,259.196387 84.5757293,259.234034 84.5757293,259.276814 C84.5757293,272.232338 99.8731606,282.732285 118.75106,282.732285 C137.625537,282.732285 152.928103,272.232338 152.928103,259.276814 L152.928103,259.273391 L152.928103,64.2320894 L152.928103,64.2303782"/>
    <path d="M89.5365264 92.4050071C89.5365264 92.4409424 89.5450839 92.4768777 89.5450839 92.5145241L89.5450839 259.031769C89.5450839 259.071127 89.5365264 259.108774 89.5365264 259.142998 89.5365264 270.216198 102.614136 279.194884 118.750205 279.194884 134.886273 279.194884 147.967306 270.216198 147.967306 259.142998L147.967306 259.141286 147.967306 92.4067183 147.967306 92.4050071M118.75243 61.3143157C118.75243 67.9726099 113.356054 73.3697468 106.696589 73.3697468 100.035411 73.3697468 94.6373247 67.9726099 94.6373247 61.3143157 94.6373247 54.6543104 100.035411 49.2588847 106.696589 49.2588847 113.356054 49.2588847 118.75243 54.6543104 118.75243 61.3143157z"/>
    <path d="M135.447818 141.816018C135.447818 146.42429 131.709891 150.16327 127.100808 150.16327 122.490014 150.16327 118.750376 146.42429 118.750376 141.816018 118.750376 137.206035 122.490014 133.468766 127.100808 133.468766 131.709891 133.468766 135.447818 137.206035 135.447818 141.816018zM147.216126 207.704039C142.473546 207.704039 142.473546 173.459428 137.732677 173.459428 132.988386 173.459428 132.988386 207.704039 128.245805 207.704039 123.504937 207.704039 123.504937 173.459428 118.765779 173.459428 114.019776 173.459428 114.019776 207.704039 109.275484 207.704039 104.529481 207.704039 104.529481 173.459428 99.7800548 173.459428 95.03234 173.459428 95.03234 207.704039 90.2846252 207.704039"/>
  </g>
</svg>
