<svg xmlns="http://www.w3.org/2000/svg" width="306" height="98" viewBox="0 0 306 98">
  <defs>
    <filter id="a" width="200%" height="200%" x="-50%" y="-50%" filterUnits="objectBoundingBox">
      <feOffset dx="-1" dy="1" in="SourceAlpha" result="shadowOffsetOuter1"/>
      <feGaussianBlur stdDeviation="1.5" in="shadowOffsetOuter1" result="shadowBlurOuter1"/>
      <feColorMatrix values="0 0 0 0 0 0 0 0 0 0 0 0 0 0 0 0 0 0 0.5 0" in="shadowBlurOuter1" result="shadowMatrixOuter1"/>
      <feMerge>
        <feMergeNode in="shadowMatrixOuter1"/>
        <feMergeNode in="SourceGraphic"/>
      </feMerge>
    </filter>
  </defs>
  <g fill="none" fill-rule="evenodd" stroke="#622181" filter="url(#a)" transform="translate(4 2)">
    <path d="M84.8003226.69124424L7.23165899.69124424C3.61921659.69124424.691105991 3.61797235.691105991 7.23041475.691105991 10.8442396 3.61921659 13.7709677 7.23165899 13.7709677L84.8003226 13.7709677C88.412765 13.7709677 91.3394931 10.8442396 91.3394931 7.23041475 91.3394931 3.61797235 88.412765.69124424 84.8003226.69124424M84.8003226 78.2618433L7.23165899 78.2618433C3.61921659 78.2618433.691105991 81.1899539.691105991 84.8010138.691105991 88.4120737 3.61921659 91.3415668 7.23165899 91.3415668L84.8003226 91.3415668C88.412765 91.3415668 91.3394931 88.4120737 91.3394931 84.8010138 91.3394931 81.1899539 88.412765 78.2618433 84.8003226 78.2618433M188.532857 39.4751613L110.962811 39.4751613C107.351751 39.4751613 104.423641 42.4032719 104.423641 46.0157143 104.423641 49.6295392 107.351751 52.5562673 110.962811 52.5562673L188.532857 52.5562673C192.146682 52.5562673 195.074793 49.6295392 195.074793 46.0157143 195.074793 42.4032719 192.146682 39.4751613 188.532857 39.4751613M188.532857 78.2618433L110.962811 78.2618433C107.351751 78.2618433 104.423641 81.1899539 104.423641 84.8010138 104.423641 88.4120737 107.351751 91.3415668 110.962811 91.3415668L188.532857 91.3415668C192.146682 91.3415668 195.074793 88.4120737 195.074793 84.8010138 195.074793 81.1899539 192.146682 78.2618433 188.532857 78.2618433"/>
    <path d="M117.504747 84.8015668L117.504747 7.23152074C117.504747 3.61907834 114.576636.690967742 110.962811.690967742 107.351751.690967742 104.423641 3.61907834 104.423641 7.23152074L104.423641 84.8015668C104.423641 88.4112442 107.351751 91.3407373 110.962811 91.3407373 114.576636 91.3407373 117.504747 88.4112442 117.504747 84.8015668M221.392535 84.8015668L221.392535 7.23152074C221.392535 3.61769585 218.463041.690967742 214.851982.690967742 211.240922.690967742 208.311429 3.61769585 208.311429 7.23152074L208.311429 84.8015668C208.311429 88.4112442 211.240922 91.3407373 214.851982 91.3407373 218.463041 91.3407373 221.392535 88.4112442 221.392535 84.8015668M298.960369 46.0162673L298.960369 7.230553C298.960369 3.6181106 296.032258.691382488 292.422581.691382488 288.808756.691382488 285.880645 3.6181106 285.880645 7.230553L285.880645 46.0162673C285.880645 49.6287097 288.808756 52.5554378 292.422581 52.5554378 296.032258 52.5554378 298.960369 49.6287097 298.960369 46.0162673M297.047419 80.1749309L258.256175 41.3850691C255.702719 38.8316129 251.560783 38.8316129 249.005945 41.3850691 246.452488 43.9399078 246.452488 48.0804608 249.005945 50.6352995L287.794424 89.4265438C290.350645 91.98 294.489816 91.98 297.047419 89.4265438 299.600876 86.8717051 299.600876 82.7311521 297.047419 80.1749309"/>
    <path d="M292.422028.69124424L214.851982.69124424C211.238157.69124424 208.311429 3.61797235 208.311429 7.23041475 208.311429 10.8442396 211.238157 13.7709677 214.851982 13.7709677L292.422028 13.7709677C296.033088 13.7709677 298.959816 10.8442396 298.959816 7.23041475 298.959816 3.61797235 296.033088.69124424 292.422028.69124424M292.422028 39.4751613L214.851982 39.4751613C211.238157 39.4751613 208.311429 42.4032719 208.311429 46.0157143 208.311429 49.6295392 211.238157 52.5562673 214.851982 52.5562673L292.422028 52.5562673C296.033088 52.5562673 298.959816 49.6295392 298.959816 46.0157143 298.959816 42.4032719 296.033088 39.4751613 292.422028 39.4751613M13.772212 84.8015668L13.772212 7.23152074C13.772212 3.61907834 10.8427189.690967742 7.23165899.690967742 3.61921659.690967742.691105991 3.61907834.691105991 7.23152074L.691105991 84.8015668C.691105991 88.4112442 3.61921659 91.3407373 7.23165899 91.3407373 10.8427189 91.3407373 13.772212 88.4112442 13.772212 84.8015668M91.3400461 84.8015668L91.3400461 7.23152074C91.3400461 3.61907834 88.413318.690967742 84.8008756.690967742 81.1884332.690967742 78.2603226 3.61907834 78.2603226 7.23152074L78.2603226 84.8015668C78.2603226 88.4112442 81.1884332 91.3407373 84.8008756 91.3407373 88.413318 91.3407373 91.3400461 88.4112442 91.3400461 84.8015668M188.532857.69124424L110.962811.69124424C107.351751.69124424 104.423641 3.61797235 104.423641 7.23041475 104.423641 10.8442396 107.351751 13.7709677 110.962811 13.7709677L188.532857 13.7709677C192.146682 13.7709677 195.074793 10.8442396 195.074793 7.23041475 195.074793 3.61797235 192.146682.69124424 188.532857.69124424"/>
  </g>
</svg>
