<svg xmlns="http://www.w3.org/2000/svg" width="231" height="306" viewBox="0 0 231 306">
  <defs>
    <filter id="a" width="200%" height="200%" x="-50%" y="-50%" filterUnits="objectBoundingBox">
      <feOffset dx="-1" dy="1" in="SourceAlpha" result="shadowOffsetOuter1"/>
      <feGaussianBlur stdDeviation="1.5" in="shadowOffsetOuter1" result="shadowBlurOuter1"/>
      <feColorMatrix values="0 0 0 0 0 0 0 0 0 0 0 0 0 0 0 0 0 0 0.5 0" in="shadowBlurOuter1" result="shadowMatrixOuter1"/>
      <feMerge>
        <feMergeNode in="shadowMatrixOuter1"/>
        <feMergeNode in="SourceGraphic"/>
      </feMerge>
    </filter>
  </defs>
  <g fill="none" fill-rule="evenodd" stroke="#FFFFFF" filter="url(#a)" transform="translate(4 2)" stroke-linecap="round">
    <path d="M224.516469,121.299815 C224.516469,178.129444 178.389755,224.196111 121.481908,224.196111 C64.5629347,224.196111 18.4269497,178.129444 18.4269497,121.299815 C18.4269497,64.4498148 64.5629347,18.4035185 121.481908,18.4035185 C178.389755,18.4035185 224.516469,64.4498148 224.516469,121.299815 Z"/>
    <path d="M184.068672,224.198889 C165.825673,235.287778 144.402481,241.676667 121.482835,241.676667 C54.8990406,241.676667 0.926613813,187.78037 0.926613813,121.300741 C0.926613813,54.7933333 54.8990406,0.926666667 121.482835,0.926666667"/>
    <path d="M20.0717495 128.448704C27.7542811 127.056111 31.7318409 148.956111 39.4143725 147.56537 47.0950497 146.172778 43.1174899 124.272778 50.7981672 122.880185 58.4825531 121.489444 62.4601129 143.389444 70.1426445 141.996852 77.8270304 140.604259 73.8494706 118.704259 81.5338565 117.311667 89.2163881 115.919074 93.1958022 137.820926 100.878334 136.428333 108.560865 135.035741 104.581451 113.133889 112.263983 111.743148 119.94466 110.354259 123.92222 132.254259 131.602897 130.861667 139.285429 129.469074 135.309723 107.569074 142.9904 106.178333 150.674786 104.785741 154.652346 126.685741 162.338586 125.293148 170.022972 123.900556 166.045413 102.000556 173.731653 100.607963 181.416039 99.2172222 185.393598 121.117222 193.077984 119.72463 200.767933 118.332037 196.790374 96.432037 204.478468 95.0375926 212.168417 93.6431481 216.147831 115.543148 223.83778 114.150556M121.482835 241.675741L121.482835 284.460926M128.599608 291.921667L188.225918 291.921667M53.7884762 291.921667L113.414786 291.921667M113.661599 291.919815C113.661599 287.801296 117.004974 284.462407 121.125318 284.462407 125.254934 284.462407 128.600164 287.801296 128.600164 291.919815 128.600164 296.042037 125.254934 299.380926 121.125318 299.380926 117.004974 299.380926 113.661599 296.042037 113.661599 291.919815z"/>
  </g>
</svg>
