<svg xmlns="http://www.w3.org/2000/svg" width="306" height="198" viewBox="0 0 306 198">
  <defs>
    <filter id="a" width="200%" height="200%" x="-50%" y="-50%" filterUnits="objectBoundingBox">
      <feOffset dx="-1" dy="1" in="SourceAlpha" result="shadowOffsetOuter1"/>
      <feGaussianBlur stdDeviation="1.5" in="shadowOffsetOuter1" result="shadowBlurOuter1"/>
      <feColorMatrix values="0 0 0 0 0 0 0 0 0 0 0 0 0 0 0 0 0 0 0.5 0" in="shadowBlurOuter1" result="shadowMatrixOuter1"/>
      <feMerge>
        <feMergeNode in="shadowMatrixOuter1"/>
        <feMergeNode in="SourceGraphic"/>
      </feMerge>
    </filter>
  </defs>
  <g fill="none" fill-rule="evenodd" stroke="#622181" filter="url(#a)" transform="translate(4 2)" stroke-linecap="round">
    <path d="M217.90898,122.532462 C217.90898,160.221003 187.275918,190.782944 149.488163,190.782944 C111.690612,190.782944 81.0538776,160.221003 81.0538776,122.532462 C81.0538776,84.8268212 111.690612,54.2819791 149.488163,54.2819791 C187.275918,54.2819791 217.90898,84.8268212 217.90898,122.532462 Z"/>
    <path d="M186.014816,122.636277 C186.014816,142.789839 169.634816,159.131556 149.428286,159.131556 C129.216857,159.131556 112.834408,142.789839 112.834408,122.636277 C112.834408,102.474165 129.216857,86.1409981 149.428286,86.1409981 C169.634816,86.1409981 186.014816,102.474165 186.014816,122.636277 Z"/>
    <path d="M168.46298 122.531363C168.46298 132.988595 159.966245 141.466014 149.483388 141.466014 138.996857 141.466014 130.496449 132.988595 130.496449 122.531363 130.496449 112.072908 138.996857 103.597933 149.483388 103.597933 159.966245 103.597933 168.46298 112.072908 168.46298 122.531363zM20.1012245 99.9876105C21.5571429 97.2908609-1.45346939 82.9546077.762857143 79.4835196 2.56163265 76.6707413 28.5502041 86.2424926 30.8828571 83.0877352 32.9412245 80.3006054 12.2693878 63.4850036 14.7697959 60.5403191 17.0681633 57.8362414 41.3963265 70.3160365 44.0853061 67.5631046 46.6089796 64.9774982 28.7326531 45.8743003 31.615102 43.3155637 34.3579592 40.8789625 56.4134694 56.2497025 59.4930612 53.8973747 62.4453061 51.6403126 48.0159184 30.4302791 51.2877551 28.2990164 54.4346939 26.248363 73.4877551 44.4331026 76.9420408 42.543668 80.2726531 40.7238505 69.9489796 17.7550673 73.5746939 16.1233384 77.0657143 14.5538985 92.4061224 35.2472992 96.177551 33.8879322 99.8032653 32.5835262 94.0163265 8.43247226 97.9089796 7.35401668 101.642449 6.31952984 112.831837 28.9622116 116.817551 28.1658888 120.633061 27.4025425 119.428163 2.75073347 123.478776 2.23043667 127.345714 1.73700965 134.327755 25.6401287 138.413878 25.3885298 142.313878 25.1491444 145.33102.610921269 149.431837.610921269 153.557143.610921269 156.658776 25.1430376 160.573469 25.3665454 164.686531 25.6034881 171.492245 1.65517893 175.376327 2.11929345 179.46 2.60905641 178.591837 27.2767431 182.426939 27.9973419 186.453061 28.75336 197.289796 5.97510802 201.04898 6.96196205 204.991837 7.99522753 199.667755 32.2293335 203.326531 33.4873281 207.153061 34.801505 222.133469 13.9029168 225.66 15.4283879 229.340816 17.0210336 219.417551 40.1229444 222.781224 41.9085639 226.294286 43.7711288 245.115918 25.4056287 248.294694 27.4330764 251.614286 29.5509042 237.382041 50.8635314 240.355102 53.1120441 243.470204 55.4692573 265.495102 40.0655407 268.244082 42.5082487 271.146122 45.086527 253.208571 64.1469775 255.723673 66.7557896 258.407755 69.5404767 282.877959 57.279304 285.146939 60.0200223 287.621633 63.0074542 266.66449 79.5568008 268.675102 82.3903421 270.952653 85.6000604 297.176327 76.5376138 298.902857 79.4029102 301.03102 82.9375087 277.583265 96.7265953 278.953469 99.4746418"/>
  </g>
</svg>
