<svg xmlns="http://www.w3.org/2000/svg" width="307" height="307" viewBox="0 0 307 307">
  <defs>
    <filter id="a" width="200%" height="200%" x="-50%" y="-50%" filterUnits="objectBoundingBox">
      <feOffset dx="-1" dy="1" in="SourceAlpha" result="shadowOffsetOuter1"/>
      <feGaussianBlur stdDeviation="1.5" in="shadowOffsetOuter1" result="shadowBlurOuter1"/>
      <feColorMatrix values="0 0 0 0 0 0 0 0 0 0 0 0 0 0 0 0 0 0 0.5 0" in="shadowBlurOuter1" result="shadowMatrixOuter1"/>
      <feMerge>
        <feMergeNode in="shadowMatrixOuter1"/>
        <feMergeNode in="SourceGraphic"/>
      </feMerge>
    </filter>
  </defs>
  <g fill="none" fill-rule="evenodd" stroke="#622181" filter="url(#a)" transform="translate(4 2)">
    <path d="M150.078694,56.5302985 C201.660784,56.5302985 243.624963,98.495597 243.624963,150.077687 C243.624963,201.659776 201.660784,243.627313 150.078694,243.627313 C98.4966045,243.627313 56.5301866,201.659776 56.5301866,150.077687 C56.5301866,144.393358 57.0607836,138.833284 58.0357836,133.426567 C58.6548134,131.111642 58.9917537,128.680299 58.9917537,126.170597 C58.9917537,110.691493 46.4421269,98.1441045 30.9630224,98.1441045 C18.0126493,98.1441045 7.12085821,106.92806 3.90481343,118.864254 L3.84772388,118.848582 C3.74697761,119.318731 3.66190299,119.794478 3.56563433,120.266866 C3.51973881,120.475075 3.4783209,120.685522 3.43914179,120.89597 C1.56302239,130.339254 0.560037313,140.092612 0.560037313,150.077687 C0.560037313,232.522836 67.6346642,299.597463 150.078694,299.597463 C232.522724,299.597463 299.595112,232.522836 299.595112,150.077687 C299.595112,67.6336567 232.522724,0.560149254 150.078694,0.560149254"/>
    <path d="M3.90481343 118.863694C7.12085821 106.928619 18.0137687 98.1435448 30.9630224 98.1435448 46.4421269 98.1435448 58.9917537 110.690933 58.9917537 126.170037 58.9917537 127.475261 58.8954851 128.756978 58.723097 130.014067 67.8283209 88.5390672 104.522351 57.2920522 148.526082 56.5700373 149.039888 56.5980224 149.555933 56.6148134 150.078694 56.6148134 165.557799 56.6148134 178.105187 44.0674254 178.105187 28.5872015 178.105187 13.1069776 165.557799.559589552 150.078694.559589552 78.3406343.559589552 18.2510821 51.3457836 3.84996269 118.848022L3.90481343 118.863694zM222.310858 281.076604C211.186231 286.459813 197.413097 283.978097 188.934739 274.190037 178.799664 262.488918 180.067948 244.788918 191.767948 234.653843 192.754142 233.801978 193.786231 233.031828 194.849664 232.341157 157.538843 252.613545 109.894813 245.336306 80.5384701 212.545634 80.2227985 212.14041 79.7011567 211.646754 79.3619776 211.251604 69.2257836 199.551604 51.7194403 198.375112 40.0194403 208.510187 28.3194403 218.644142 27.0511567 236.345261 37.1862313 248.044142 84.1541418 302.269142 161.883246 314.438172 222.334366 281.126978L222.310858 281.076604z"/>
  </g>
</svg>
