<svg xmlns="http://www.w3.org/2000/svg" width="307" height="295" viewBox="0 0 307 295">
  <defs>
    <filter id="a" width="200%" height="200%" x="-50%" y="-50%" filterUnits="objectBoundingBox">
      <feOffset dx="-1" dy="1" in="SourceAlpha" result="shadowOffsetOuter1"/>
      <feGaussianBlur stdDeviation="1.5" in="shadowOffsetOuter1" result="shadowBlurOuter1"/>
      <feColorMatrix values="0 0 0 0 0 0 0 0 0 0 0 0 0 0 0 0 0 0 0.5 0" in="shadowBlurOuter1" result="shadowMatrixOuter1"/>
      <feMerge>
        <feMergeNode in="shadowMatrixOuter1"/>
        <feMergeNode in="SourceGraphic"/>
      </feMerge>
    </filter>
  </defs>
  <g fill="none" fill-rule="evenodd" stroke="#FFFFFF" filter="url(#a)" transform="translate(4 2)" stroke-linecap="round">
    <path d="M111.261 57.115L189.02975 57.115M78.45825 109.26225L122.00325 167.1135M222.804 108.008625L182.59275 161.589875"/>
    <g transform="translate(0 .241)">
      <path d="M114.00025,247.7515 C105.309,237.98525 100.02775,225.11275 100.02775,211.0065 C100.02775,180.444 124.8015,155.69525 155.36025,155.69525 C185.914,155.69525 210.66275,180.444 210.66275,211.0065 C210.66275,241.55775 185.914,266.319 155.36025,266.319 C155.36025,266.319 144.46275,266.149 135.41775,262.6165"/>
      <path d="M175.885,202.868625 C175.885,214.212375 166.6925,223.406125 155.3475,223.406125 C144.01,223.406125 134.81125,214.212375 134.81125,202.868625 C134.81125,191.523625 144.01,182.333625 155.3475,182.333625 C166.6925,182.333625 175.885,191.523625 175.885,202.868625 Z"/>
      <path d="M196.263375,247.171625 C196.263375,233.277875 189.328375,221.005375 178.737125,213.611625 C175.488375,223.420375 166.248375,230.501625 155.348375,230.501625 C144.445875,230.501625 135.205875,223.420375 131.953375,213.611625 C121.365875,221.005375 114.429625,233.277875 114.429625,247.171625 C114.429625,269.769125 132.749625,288.089125 155.348375,288.089125"/>
      <path d="M155.3455 280.856875C157.0705 280.856875 158.4655 282.481875 158.4655 284.485625 158.4655 286.500625 157.0705 288.124375 155.3455 288.124375M155.3455 273.584C157.0705 273.584 158.4655 275.2115 158.4655 277.219 158.4655 279.23275 157.0705 280.8565 155.3455 280.8565M155.3455 266.307375C157.0705 266.307375 158.4655 267.938625 158.4655 269.948625 158.4655 271.953625 157.0705 273.583625 155.3455 273.583625M14.597125 94.184625C5.905875 84.418375.624625 71.545875.624625 57.439625.624625 26.877125 25.398375 2.128375 55.957125 2.128375 86.510875 2.128375 111.259625 26.877125 111.259625 57.439625 111.259625 87.990875 86.510875 112.752125 55.957125 112.752125 55.957125 112.752125 45.059625 112.582125 36.014625 109.050875"/>
      <path d="M76.481875,49.30175 C76.481875,60.6455 67.289375,69.83925 55.944375,69.83925 C44.606875,69.83925 35.408125,60.6455 35.408125,49.30175 C35.408125,37.95675 44.606875,28.76675 55.944375,28.76675 C67.289375,28.76675 76.481875,37.95675 76.481875,49.30175 Z"/>
      <path d="M96.860375,93.60475 C96.860375,79.711 89.925375,67.4385 79.334125,60.04475 C76.085375,69.8535 66.845375,76.93475 55.945375,76.93475 C45.042875,76.93475 35.802875,69.8535 32.550375,60.04475 C21.962875,67.4385 15.026625,79.711 15.026625,93.60475 C15.026625,116.20225 33.346625,134.52225 55.945375,134.52225"/>
      <path d="M55.942375 127.29C57.667375 127.29 59.062375 128.915 59.062375 130.91875 59.062375 132.93375 57.667375 134.5575 55.942375 134.5575M55.942375 120.017125C57.667375 120.017125 59.062375 121.644625 59.062375 123.652125 59.062375 125.665875 57.667375 127.289625 55.942375 127.289625M55.942375 112.7405C57.667375 112.7405 59.062375 114.37175 59.062375 116.38175 59.062375 118.38675 57.667375 120.01675 55.942375 120.01675M285.693375 92.68925C294.384625 82.923 299.665875 70.0505 299.665875 55.94425 299.665875 25.38175 274.892125.633 244.333375.633 213.779625.633 189.030875 25.38175 189.030875 55.94425 189.030875 86.49675 213.779625 111.25675 244.333375 111.25675 244.333375 111.25675 255.230875 111.08675 264.275875 107.55425"/>
      <path d="M223.808625,47.806375 C223.808625,59.150125 233.001125,68.343875 244.346125,68.343875 C255.683625,68.343875 264.882375,59.150125 264.882375,47.806375 C264.882375,36.461375 255.683625,27.271375 244.346125,27.271375 C233.001125,27.271375 223.808625,36.461375 223.808625,47.806375 Z"/>
      <path d="M203.430125,92.109375 C203.430125,78.215625 210.365125,65.943125 220.956375,58.549375 C224.205125,68.358125 233.445125,75.439375 244.345125,75.439375 C255.247625,75.439375 264.487625,68.358125 267.740125,58.549375 C278.327625,65.943125 285.263875,78.215625 285.263875,92.109375 C285.263875,114.706875 266.943875,133.026875 244.345125,133.026875"/>
      <path d="M244.348125 125.794625C242.623125 125.794625 241.228125 127.419625 241.228125 129.423375 241.228125 131.438375 242.623125 133.062125 244.348125 133.062125M244.348125 118.52175C242.623125 118.52175 241.228125 120.14925 241.228125 122.15675 241.228125 124.1705 242.623125 125.79425 244.348125 125.79425M244.348125 111.245125C242.623125 111.245125 241.228125 112.876375 241.228125 114.886375 241.228125 116.891375 242.623125 118.521375 244.348125 118.521375"/>
    </g>
  </g>
</svg>
