<svg xmlns="http://www.w3.org/2000/svg" width="52" height="99" viewBox="0 0 52 99">
  <g fill="none" fill-rule="evenodd" stroke="#339967" transform="rotate(180 25.5 49)" stroke-linecap="round">
    <path d="M39.3649316,43.9775 C39.3568789,43.9865 39.3506158,43.9975 39.3416684,44.0065 L2.32014211,85.3825 C2.31119474,85.3925 2.30224737,85.4005 2.29419474,85.4095 C-0.168121053,88.1615 -0.168121053,92.6215 2.2933,95.3735 C4.75472105,98.1235 8.74614211,98.1235 11.2084579,95.3725 L11.2093526,95.3725 L48.2783,53.9415 L48.2791947,53.9405 C50.7406158,51.1895 50.7397211,46.7295 48.2783,43.9785 C45.8159842,41.2265 41.8263526,41.2265 39.3649316,43.9775 Z"/>
    <path d="M2.29365789,12.5254 C2.30171053,12.5354 2.31065789,12.5424 2.31960526,12.5514 L39.3411316,53.9284 C39.3500789,53.9384 39.3563421,53.9494 39.3643947,53.9584 C41.8267105,56.7104 45.8172368,56.7104 48.2795526,53.9584 C50.7400789,51.2074 50.7400789,46.7474 48.2786579,43.9954 L48.2777632,43.9944 L11.2088158,2.5634 L11.2079211,2.5624 C8.7465,-0.1886 4.75507895,-0.1876 2.29365789,2.5634 C-0.167763158,5.3154 -0.167763158,9.7744 2.29365789,12.5254 Z"/>
  </g>
</svg>
