<svg xmlns="http://www.w3.org/2000/svg" width="48" height="48" viewBox="0 0 48 48">
  <g fill="none" fill-rule="evenodd" stroke="#FFFFFF" transform="translate(-1 -1)" stroke-linecap="round">
    <path d="M48.8258492,19.2399966 C48.8152663,19.2399966 1.15780865,19.2416248 1.15780865,19.2416248 C-2.04149798,19.2399966 -4.60989808,21.8067686 -4.60989808,24.9751404 C-4.60989808,28.1426982 -2.04149798,30.7102843 1.1260598,30.7102843 L48.8250351,30.7102843 C51.993407,30.7102843 54.560179,28.1426982 54.560179,24.9751404 C54.560179,21.8067686 51.993407,19.2399966 48.8258492,19.2399966 Z" transform="rotate(45 24.975 24.975)"/>
    <path d="M48.8258492,19.2399966 C48.8152663,19.2399966 1.15780865,19.2416248 1.15780865,19.2416248 C-2.04149798,19.2399966 -4.60989808,21.8067686 -4.60989808,24.9751404 C-4.60989808,28.1426982 -2.04149798,30.7102843 1.1260598,30.7102843 L48.8250351,30.7102843 C51.993407,30.7102843 54.560179,28.1426982 54.560179,24.9751404 C54.560179,21.8067686 51.993407,19.2399966 48.8258492,19.2399966 Z" transform="rotate(-45 24.975 24.975)"/>
  </g>
</svg>
