<svg xmlns="http://www.w3.org/2000/svg" width="165" height="306" viewBox="0 0 165 306">
  <defs>
    <filter id="a" width="200%" height="200%" x="-50%" y="-50%" filterUnits="objectBoundingBox">
      <feOffset dx="-1" dy="1" in="SourceAlpha" result="shadowOffsetOuter1"/>
      <feGaussianBlur stdDeviation="1.5" in="shadowOffsetOuter1" result="shadowBlurOuter1"/>
      <feColorMatrix values="0 0 0 0 0 0 0 0 0 0 0 0 0 0 0 0 0 0 0.5 0" in="shadowBlurOuter1" result="shadowMatrixOuter1"/>
      <feMerge>
        <feMergeNode in="shadowMatrixOuter1"/>
        <feMergeNode in="SourceGraphic"/>
      </feMerge>
    </filter>
  </defs>
  <g fill="none" fill-rule="evenodd" stroke="#FFFFFF" filter="url(#a)" transform="translate(4 2)" stroke-linecap="round">
    <path d="M72.5232543 216.322676C72.5232543 219.532535 86.5540443 219.532535 86.5540443 222.743803 86.5540443 225.950845 72.5232543 225.950845 72.5232543 229.157887 72.5232543 232.370563 86.5540443 232.370563 86.5540443 235.581831 86.5540443 238.79169 72.5232543 238.79169 72.5232543 242.000141 72.5232543 245.212817 86.5540443 245.212817 86.5540443 248.422676 86.5540443 251.635352 72.5232543 251.635352 72.5232543 254.848028 72.5232543 258.059296 86.5540443 258.059296 86.5540443 261.271972 86.5540443 264.483239 72.5232543 264.483239 72.5232543 267.695915 72.5232543 270.907183 86.5540443 270.907183 86.5540443 274.118451 86.5540443 277.329718 72.5232543 277.329718 72.5232543 280.542394 72.5232543 283.756479 86.5540443 283.756479 86.5540443 286.970563 86.5540443 290.187465 72.5232543 290.187465 72.5232543 293.405775 72.5232543 296.621268 86.5540443 296.621268 86.5540443 299.838169M158.361207 185.944648C158.361207 185.944648 158.372455 188.908028 158.372455 193.237606 158.372455 205.826338 123.082466 216.029155 79.5446952 216.029155 35.9998943 216.029155.702875233 205.82493.702875233 193.237606L.702875233 185.600986"/>
    <path d="M93.1441148,163.144085 C130.200079,165.006056 158.372736,174.34831 158.372736,185.600423 C158.372736,198.190563 123.082747,208.39338 79.5449764,208.39338 C35.9987695,208.39338 0.703156439,198.189155 0.703156439,185.600423 C0.703156439,174.328592 28.9798594,164.97507 66.1370584,163.135634"/>
    <path d="M133.066275,54.3205634 C133.066275,94.2050704 79.5442734,187.70507 79.5442734,187.70507 C79.5442734,187.70507 26.0068054,94.2050704 26.0068054,54.3205634 C26.0068054,24.6966197 49.9726153,0.705070423 79.5442734,0.705070423 C109.106089,0.705070423 133.066275,24.6966197 133.066275,54.3205634 Z"/>
    <path d="M107.755033,54.3205634 C107.755033,69.931831 95.126057,82.5839437 79.5416019,82.5839437 C63.9543348,82.5839437 51.3183282,69.931831 51.3183282,54.3205634 C51.3183282,38.703662 63.9543348,26.0571831 79.5416019,26.0571831 C95.126057,26.0571831 107.755033,38.703662 107.755033,54.3205634 Z"/>
    <path d="M95.8037643,54.3205634 C95.8037643,63.3191549 88.5233323,70.6121127 79.5401959,70.6121127 C70.5542475,70.6121127 63.2724095,63.3191549 63.2724095,54.3205634 C63.2724095,45.3177465 70.5542475,38.0290141 79.5401959,38.0290141 C88.5233323,38.0290141 95.8037643,45.3177465 95.8037643,54.3205634 Z"/>
  </g>
</svg>
