<svg xmlns="http://www.w3.org/2000/svg" width="248" height="308" viewBox="0 0 248 308">
  <defs>
    <filter id="a" width="200%" height="200%" x="-50%" y="-50%" filterUnits="objectBoundingBox">
      <feOffset dx="-1" dy="1" in="SourceAlpha" result="shadowOffsetOuter1"/>
      <feGaussianBlur stdDeviation="1.5" in="shadowOffsetOuter1" result="shadowBlurOuter1"/>
      <feColorMatrix values="0 0 0 0 0 0 0 0 0 0 0 0 0 0 0 0 0 0 0.5 0" in="shadowBlurOuter1" result="shadowMatrixOuter1"/>
      <feMerge>
        <feMergeNode in="shadowMatrixOuter1"/>
        <feMergeNode in="SourceGraphic"/>
      </feMerge>
    </filter>
  </defs>
  <g fill="none" fill-rule="evenodd" stroke="#FFFFFF" filter="url(#a)" transform="translate(3.65 3)" stroke-linecap="round">
    <path d="M219.379505 58.6986293C215.28579 57.2362252 228.705847 19.7429693 224.612132 18.2805652 220.518418 16.8161714 207.098361 54.3094273 203.004646 52.8470232 198.912922 51.3826294 212.328997 13.8893735 208.235282 12.4269694 204.139577 10.9625756 190.717528 48.4558316 186.621823 46.9914378 182.520143 45.5250543 195.942192 8.03179842 191.842503 6.56740465 187.742815 5.10301087 174.322758 42.5942771 170.225061 41.1298833M222.284529 189.155621C222.284529 250.214475 172.755758 299.709393 111.650694 299.709393 50.535674 299.709393.994955864 250.214475.994955864 189.155621.994955864 128.074881 50.535674 78.6018498 111.650694 78.6018498 172.755758 78.6018498 222.284529 128.074881 222.284529 189.155621z"/>
    <path d="M129.375324 139.458752C129.375324 151.621577 119.509391 161.48037 107.337758 161.48037 95.1641335 161.48037 85.2942192 151.621577 85.2942192 139.458752 85.2942192 127.291948 95.1641335 117.437135 107.337758 117.437135 119.509391 117.437135 129.375324 127.291948 129.375324 139.458752zM184.130749 186.548165C184.130749 194.681917 177.534214 201.273679 169.394571 201.273679 161.252937 201.273679 154.652419 194.681917 154.652419 186.548165 154.652419 178.410433 161.252937 171.820661 169.394571 171.820661 177.534214 171.820661 184.130749 178.410433 184.130749 186.548165zM147.497378 84.5350322L175.928387 1.93208102"/>
    <polygon points="228.052 61.51 163.134 39.065 176.645 .049 241.557 22.495"/>
    <path d="M.995553196 185.312384L82.6806929 185.312384M5.6856043 221.077814L111.642331 221.077814M20.4010752 251.699959L202.346386 251.699959"/>
  </g>
</svg>
