<svg xmlns="http://www.w3.org/2000/svg" width="266" height="322" viewBox="0 0 266 322">
  <defs>
    <filter id="a" width="200%" height="200%" x="-50%" y="-50%" filterUnits="objectBoundingBox">
      <feOffset dx="-1" dy="1" in="SourceAlpha" result="shadowOffsetOuter1"/>
      <feGaussianBlur stdDeviation="1.5" in="shadowOffsetOuter1" result="shadowBlurOuter1"/>
      <feColorMatrix values="0 0 0 0 0 0 0 0 0 0 0 0 0 0 0 0 0 0 0.5 0" in="shadowBlurOuter1" result="shadowMatrixOuter1"/>
      <feMerge>
        <feMergeNode in="shadowMatrixOuter1"/>
        <feMergeNode in="SourceGraphic"/>
      </feMerge>
    </filter>
  </defs>
  <g fill="none" fill-rule="evenodd" stroke="#FFFFFF" filter="url(#a)" transform="translate(4 3)">
    <path d="M246.930849,237.702115 C246.907609,237.702115 246.886157,237.705686 246.861129,237.705686 L142.25376,237.705686 C142.23052,237.705686 142.20728,237.702115 142.18404,237.702115 C135.228212,237.702115 129.588109,243.3312 129.588109,250.279629 C129.588109,257.226273 135.228212,262.857144 142.18404,262.857144 L142.185828,262.857144 L246.929061,262.857144 L246.930849,262.857144 C253.886677,262.857144 259.523205,257.226273 259.523205,250.279629 C259.523205,243.3312 253.886677,237.702115 246.930849,237.702115 Z" stroke-linecap="round"/>
    <path d="M179.578905,196.497144 C179.578905,196.520353 179.58248,196.541776 179.58248,196.566771 L179.58248,301.036014 C179.58248,301.059223 179.578905,301.082432 179.578905,301.105641 C179.578905,308.052285 185.215432,313.68494 192.173049,313.68494 C199.128877,313.68494 204.767192,308.052285 204.767192,301.105641 L204.767192,301.103855 L204.767192,196.498929 L204.767192,196.497144 C204.767192,189.550499 199.128877,183.921415 192.173049,183.921415 C185.215432,183.921415 179.578905,189.550499 179.578905,196.497144 Z" stroke-linecap="round"/>
    <path stroke-width="1.195" d="M153.942269,51.1424994 C153.942269,79.3521944 131.045776,102.216669 102.802358,102.216669 C74.5553651,102.216669 51.6570842,79.3521944 51.6570842,51.1424994 C51.6570842,22.9328045 74.5553651,0.0683299435 102.802358,0.0683299435 C131.045776,0.0683299435 153.942269,22.9328045 153.942269,51.1424994 Z"/>
    <path d="M204.688356,161.326165 C204.688356,126.764334 187.423027,96.2498034 161.051301,77.8575322 C152.956726,102.257374 129.940459,119.867679 102.792884,119.867679 C75.6417329,119.867679 52.6272534,102.259159 44.5326781,77.8593175 C18.1609521,96.2515887 0.893835616,126.76612 0.893835616,161.326165 C0.893835616,217.525962 46.5187808,263.090662 102.792884,263.090662"/>
    <path d="M102.791096,247.580597 C107.079719,247.580597 110.55674,251.051241 110.55674,255.335986 C110.55674,259.618947 107.079719,263.091376 102.791096,263.091376" stroke-linecap="round"/>
    <path d="M102.791096,232.07071 C107.079719,232.07071 110.55674,235.541354 110.55674,239.826099 C110.55674,244.10906 107.079719,247.581489 102.791096,247.581489" stroke-linecap="round"/>
    <path d="M102.791096,216.560823 C107.079719,216.560823 110.55674,220.031467 110.55674,224.316212 C110.55674,228.599173 107.079719,232.071602 102.791096,232.071602" stroke-linecap="round"/>
  </g>
</svg>
