<svg xmlns="http://www.w3.org/2000/svg" width="135" height="307" viewBox="0 0 135 307">
  <defs>
    <filter id="a" width="200%" height="200%" x="-50%" y="-50%" filterUnits="objectBoundingBox">
      <feOffset dx="-1" dy="1" in="SourceAlpha" result="shadowOffsetOuter1"/>
      <feGaussianBlur stdDeviation="1.5" in="shadowOffsetOuter1" result="shadowBlurOuter1"/>
      <feColorMatrix values="0 0 0 0 0 0 0 0 0 0 0 0 0 0 0 0 0 0 0.5 0" in="shadowBlurOuter1" result="shadowMatrixOuter1"/>
      <feMerge>
        <feMergeNode in="shadowMatrixOuter1"/>
        <feMergeNode in="SourceGraphic"/>
      </feMerge>
    </filter>
  </defs>
  <g fill="none" fill-rule="evenodd" stroke="#FFFFFF" filter="url(#a)" transform="translate(4 2)" stroke-linecap="round">
    <path d="M92.8078882 244.15013C92.793913 244.15013 92.7813354 244.151523 92.7687578 244.151523L36.0408075 244.151523C36.0282298 244.151523 36.0128571 244.15013 36.0030745 244.15013 32.2297826 244.15013 29.1734161 246.268095 29.1734161 248.88211 29.1734161 251.494732 32.2297826 253.614091 36.0030745 253.614091L92.8050932 253.614091 92.8078882 253.614091C96.5797826 253.614091 99.6361491 251.494732 99.6361491 248.88211 99.6361491 246.268095 96.5797826 244.15013 92.8078882 244.15013zM92.8078882 258.31681C92.793913 258.31681 92.7813354 258.318203 92.7687578 258.318203L36.0408075 258.318203C36.0282298 258.318203 36.0128571 258.31681 36.0030745 258.31681 32.2297826 258.31681 29.1734161 260.434775 29.1734161 263.048791 29.1734161 265.661412 32.2297826 267.780771 36.0030745 267.780771L92.8050932 267.780771 92.8078882 267.780771C96.5797826 267.780771 99.6361491 265.661412 99.6361491 263.048791 99.6361491 260.434775 96.5797826 258.31681 92.8078882 258.31681zM92.8078882 272.48349C92.793913 272.48349 92.7813354 272.484884 92.7687578 272.484884L36.0408075 272.484884C36.0282298 272.484884 36.0128571 272.48349 36.0030745 272.48349 32.2297826 272.48349 29.1734161 274.601456 29.1734161 277.215471 29.1734161 279.828093 32.2297826 281.947451 36.0030745 281.947451L92.8050932 281.947451 92.8078882 281.947451C96.5797826 281.947451 99.6361491 279.828093 99.6361491 277.215471 99.6361491 274.601456 96.5797826 272.48349 92.8078882 272.48349zM45.2350621 212.691238C41.2046273 208.176627 38.7561801 202.225423 38.7561801 195.705713 38.7561801 181.576654 50.2423602 170.135461 64.4117702 170.135461 78.5769876 170.135461 90.0519876 181.576654 90.0519876 195.705713 90.0519876 209.827804 78.5769876 221.274571 64.4117702 221.274571 64.4117702 221.274571 59.358354 221.196541 55.1644099 219.563478M64.4031056 79.180832C67.1953416 78.7237973 69.9889752 78.2681561 69.9889752 77.3540869 69.9889752 75.5301285 58.817236 75.5301285 58.817236 73.7047768 58.817236 71.8808185 69.9889752 71.8808185 69.9889752 70.0554667 69.9889752 68.2315084 58.817236 68.2315084 58.817236 66.4061567 58.817236 64.5808049 69.9889752 64.5808049 69.9889752 62.7568466 69.9889752 60.9301015 58.817236 60.9301015 58.817236 59.1047497 58.817236 57.2780046 69.9889752 57.2780046 69.9889752 55.4540463 69.9889752 53.6286945 58.817236 53.6286945 58.817236 51.8047362 58.817236 49.9793845 69.9889752 49.9793845 69.9889752 48.1526393 69.9889752 46.3272876 58.817236 46.3272876 58.817236 44.5005425 58.817236 42.6751907 69.9889752 42.6751907 69.9889752 40.849839 69.9889752 39.0258807 58.817236 39.0258807 58.817236 37.1991356 58.817236 35.3737838 69.9889752 35.3737838 69.9889752 33.5470387 69.9889752 31.7202936 58.817236 31.7202936 58.817236 29.8963352 58.817236 28.0695901 69.9889752 28.0695901 69.9889752 26.2442384 69.9889752 24.4216734 58.817236 24.4216734 58.817236 22.5991085 58.817236 20.7723634 69.9889752 20.7723634 69.9889752 18.9470116 69.9889752 17.1230533 58.817236 17.1230533 58.817236 15.2977016 58.817236 13.4737432 69.9889752 13.4737432 69.9889752 11.6497849 69.9889752 9.82582657 58.817236 9.82582657 58.817236 8.00047484 58.817236 6.17372971 69.9889752 6.17372971 69.9889752 4.34698458 69.9889752 2.52163285 58.817236 2.52163285 58.817236.697674513M60.9147671 140.898482C57.8667857 142.237538 55.736972 145.272359 55.736972 148.804624 55.736972 153.577013 59.6192702 157.44648 64.4043634 157.44648 69.190854 157.44648 73.0717547 153.577013 73.0717547 148.804624 73.0717547 145.269573 70.9405435 142.234751 67.8911646 140.897089"/>
    <path d="M122.468199 131.237216L67.9678882 131.237216 67.9678882 139.842844C67.9678882 140.205127 67.9399379 140.556264 67.8910248 140.897646L67.8896273 140.897646C67.5514286 143.220441 66.1189752 144.959402 64.4014286 144.959402 62.681087 144.959402 61.2514286 143.220441 60.9132298 140.89904L60.9146273 140.89904C60.8643168 140.557657 60.8363665 140.205127 60.8363665 139.842844L60.8363665 139.817762 60.8363665 131.237216 6.34164596 131.237216C3.22658385 131.237216.698478261 133.75648.698478261 136.863758L.698478261 294.330303C.698478261 297.437581 3.22658385 299.956845 6.34164596 299.956845L122.468199 299.956845C125.584658 299.956845 128.109969 297.437581 128.109969 294.330303L128.109969 136.863758C128.109969 133.75648 125.584658 131.237216 122.468199 131.237216zM67.9678882 131.237216L67.9678882 97.2996077C67.9678882 95.6456439 67.411677 94.1909361 66.5619876 93.2559659 66.4473913 94.3483902 65.5320186 95.2053301 64.4042236 95.2053301 63.2764286 95.2053301 62.3582609 94.3456034 62.2450621 93.2503923 61.3939752 94.1853626 60.8363665 95.6428571 60.8363665 97.2996077L60.8363665 97.3302624 60.8363665 131.237216"/>
    <path d="M64.4045031 95.2049121C65.5322981 95.2049121 66.4476708 94.3493655 66.5622671 93.2569413 66.5706522 93.1816978 66.5860248 93.1078477 66.5860248 93.0298174L66.5860248 81.3559267C66.5860248 80.1548174 65.6091615 79.180832 64.4045031 79.180832 63.1998447 79.180832 62.2229814 80.1548174 62.2229814 81.3559267L62.2229814 93.0298174C62.2229814 93.1064543 62.238354 93.1775176 62.2453416 93.2513677 62.3585404 94.3465787 63.2753106 95.2049121 64.4045031 95.2049121zM73.9277329 191.942562C73.9277329 197.187313 69.6653106 201.435785 64.4064596 201.435785 59.1490062 201.435785 54.8837888 197.187313 54.8837888 191.942562 54.8837888 186.697811 59.1490062 182.450733 64.4064596 182.450733 69.6653106 182.450733 73.9277329 186.697811 73.9277329 191.942562z"/>
    <path d="M83.3760559,212.423148 C83.3760559,206.000975 80.1603727,200.327058 75.2509006,196.909052 C73.7429814,201.44317 69.4595963,204.717656 64.4061801,204.717656 C59.3513665,204.717656 55.0665839,201.44317 53.5586646,196.909052 C48.6491925,200.327058 45.4349068,206.000975 45.4349068,212.423148 C45.4349068,222.869455 53.9290062,231.338529 64.4061801,231.338529"/>
    <path stroke-width="1.013" d="M64.4045031 227.995488C65.203882 227.995488 65.8509317 228.74653 65.8509317 229.67314 65.8509317 230.60393 65.203882 231.354972 64.4045031 231.354972M64.4045031 224.633079C65.203882 224.633079 65.8509317 225.385514 65.8509317 226.313517 65.8509317 227.244307 65.203882 227.995349 64.4045031 227.995349M64.4045031 221.269276C65.203882 221.269276 65.8509317 222.023105 65.8509317 222.952501 65.8509317 223.879111 65.203882 224.63294 64.4045031 224.63294"/>
  </g>
</svg>
