<?xml version="1.0" encoding="utf-8"?>
<!-- Generator: Adobe Illustrator 16.0.0, SVG Export Plug-In . SVG Version: 6.00 Build 0)  -->
<!DOCTYPE svg PUBLIC "-//W3C//DTD SVG 1.1//EN" "http://www.w3.org/Graphics/SVG/1.1/DTD/svg11.dtd">
<svg version="1.1" id="Layer_1" xmlns="http://www.w3.org/2000/svg" xmlns:xlink="http://www.w3.org/1999/xlink" x="0px" y="0px"
	 width="433.514px" height="365.585px" viewBox="0 0 433.514 365.585" enable-background="new 0 0 433.514 365.585"
	 xml:space="preserve">
<g>
	<line fill="none" stroke="#339966" stroke-miterlimit="10" x1="216.001" y1="115.657" x2="215.675" y2="230.75"/>
	<g>
		
			<linearGradient id="SVGID_1_" gradientUnits="userSpaceOnUse" x1="182.4768" y1="738.8813" x2="182.4767" y2="543.4406" gradientTransform="matrix(1 0 0 1 -16.7197 -562.1406)">
			<stop  offset="0" style="stop-color:#009EE0"/>
			<stop  offset="1" style="stop-color:#44C3FF"/>
		</linearGradient>
		<polygon fill="url(#SVGID_1_)" points="216.001,115.657 215.675,230.75 115.514,172.922 115.84,57.829 		"/>
	</g>
	<g>
		<g enable-background="new    ">
			<g>
				
					<linearGradient id="SVGID_2_" gradientUnits="userSpaceOnUse" x1="282.3152" y1="752.0698" x2="282.3152" y2="603.9677" gradientTransform="matrix(1 0 0 1 -16.7197 -562.1406)">
					<stop  offset="0" style="stop-color:#009EE0"/>
					<stop  offset="1" style="stop-color:#44C3FF"/>
				</linearGradient>
				<polygon fill="url(#SVGID_2_)" points="315.514,57.816 315.188,172.909 215.677,230.742 216.002,115.646 				"/>
			</g>
		</g>
	</g>
	<g>
		<g>
			<polygon fill="#44C3FF" points="315.512,57.828 216.001,115.657 115.84,57.829 215.35,0 			"/>
		</g>
	</g>
</g>
<g>
	<line fill="none" stroke="#339966" stroke-miterlimit="10" x1="333.999" y1="183.908" x2="333.674" y2="299"/>
	<g>
		
			<linearGradient id="SVGID_3_" gradientUnits="userSpaceOnUse" x1="300.4763" y1="807.1313" x2="300.4762" y2="611.6884" gradientTransform="matrix(1 0 0 1 -16.7197 -562.1406)">
			<stop  offset="0" style="stop-color:#009EE0"/>
			<stop  offset="1" style="stop-color:#44C3FF"/>
		</linearGradient>
		<polygon fill="url(#SVGID_3_)" points="333.999,183.908 333.674,299 233.513,241.171 233.839,126.079 		"/>
	</g>
	<g>
		<g enable-background="new    ">
			<g>
				
					<linearGradient id="SVGID_4_" gradientUnits="userSpaceOnUse" x1="401.8318" y1="786.6187" x2="393.8319" y2="723.619" gradientTransform="matrix(1 0 0 1 -16.7197 -562.1406)">
					<stop  offset="0" style="stop-color:#009EE0"/>
					<stop  offset="1" style="stop-color:#44C3FF"/>
				</linearGradient>
				<polygon fill="url(#SVGID_4_)" points="433.513,126.066 433.188,241.16 333.676,298.992 334.001,183.896 				"/>
			</g>
		</g>
	</g>
	<g>
		<g>
			<polygon fill="#44C3FF" points="433.511,126.078 333.999,183.908 233.839,126.079 333.349,68.25 			"/>
		</g>
	</g>
</g>
<g>
	<line fill="none" stroke="#339966" stroke-miterlimit="10" x1="100.486" y1="183.908" x2="100.161" y2="299"/>
	<g>
		
			<linearGradient id="SVGID_5_" gradientUnits="userSpaceOnUse" x1="66.9631" y1="807.1313" x2="66.9631" y2="611.6884" gradientTransform="matrix(1 0 0 1 -16.7197 -562.1406)">
			<stop  offset="0" style="stop-color:#009EE0"/>
			<stop  offset="1" style="stop-color:#44C3FF"/>
		</linearGradient>
		<polygon fill="url(#SVGID_5_)" points="100.486,183.908 100.161,299 0.001,241.171 0.326,126.079 		"/>
	</g>
	<g>
		<g enable-background="new    ">
			<g>
				
					<linearGradient id="SVGID_6_" gradientUnits="userSpaceOnUse" x1="166.8015" y1="797.5698" x2="166.8015" y2="615.7946" gradientTransform="matrix(1 0 0 1 -16.7197 -562.1406)">
					<stop  offset="0" style="stop-color:#009EE0"/>
					<stop  offset="1" style="stop-color:#44C3FF"/>
				</linearGradient>
				<polygon fill="url(#SVGID_6_)" points="200.001,126.066 199.675,241.16 100.163,298.992 100.488,183.896 				"/>
			</g>
		</g>
	</g>
	<g>
		<g>
			<polygon fill="#44C3FF" points="199.999,126.078 100.486,183.908 0.326,126.079 99.837,68.25 			"/>
		</g>
	</g>
</g>
<g>
	<line fill="none" stroke="#339966" stroke-miterlimit="10" x1="216.16" y1="250.492" x2="215.835" y2="365.583"/>
	<g>
		
			<linearGradient id="SVGID_7_" gradientUnits="userSpaceOnUse" x1="182.637" y1="873.7153" x2="182.6369" y2="678.2723" gradientTransform="matrix(1 0 0 1 -16.7197 -562.1406)">
			<stop  offset="0" style="stop-color:#009EE0"/>
			<stop  offset="1" style="stop-color:#44C3FF"/>
		</linearGradient>
		<polygon fill="url(#SVGID_7_)" points="216.16,250.492 215.835,365.583 115.675,307.755 116,192.664 		"/>
	</g>
	<g>
		<g enable-background="new    ">
			<g>
				
					<linearGradient id="SVGID_8_" gradientUnits="userSpaceOnUse" x1="283.9919" y1="853.2017" x2="275.992" y2="790.2017" gradientTransform="matrix(1 0 0 1 -16.7197 -562.1406)">
					<stop  offset="0" style="stop-color:#009EE0"/>
					<stop  offset="1" style="stop-color:#44C3FF"/>
				</linearGradient>
				<polygon fill="url(#SVGID_8_)" points="315.675,192.65 315.348,307.744 215.837,365.576 216.161,250.48 				"/>
			</g>
		</g>
	</g>
	<g>
		<g>
			<polygon fill="#44C3FF" points="315.673,192.662 216.16,250.492 116,192.664 215.51,134.834 			"/>
		</g>
	</g>
</g>
</svg>
