<?xml version="1.0" encoding="utf-8"?>
<!-- Generator: Adobe Illustrator 16.0.0, SVG Export Plug-In . SVG Version: 6.00 Build 0)  -->
<!DOCTYPE svg PUBLIC "-//W3C//DTD SVG 1.1//EN" "http://www.w3.org/Graphics/SVG/1.1/DTD/svg11.dtd">
<svg version="1.1" id="Layer_1" xmlns="http://www.w3.org/2000/svg" xmlns:xlink="http://www.w3.org/1999/xlink" x="0px" y="0px"
	 width="433.513px" height="365.585px" viewBox="-115.514 0 433.513 365.585" enable-background="new -115.514 0 433.513 365.585"
	 xml:space="preserve">
<g>
	<line fill="none" stroke="#339966" stroke-miterlimit="10" x1="100.486" y1="115.657" x2="100.16" y2="230.75"/>
	<g>
		
			<linearGradient id="SVGID_1_" gradientUnits="userSpaceOnUse" x1="58.6021" y1="78.063" x2="58.602" y2="273.5049" gradientTransform="matrix(1 0 0 -1 -8.3599 254.8047)">
			<stop  offset="0" style="stop-color:#339966"/>
			<stop  offset="1" style="stop-color:#5DC493"/>
		</linearGradient>
		<polygon fill="url(#SVGID_1_)" points="100.486,115.657 100.16,230.75 0,172.922 0.325,57.829 		"/>
	</g>
	<g>
		<g enable-background="new    ">
			<g>
				
					<linearGradient id="SVGID_2_" gradientUnits="userSpaceOnUse" x1="158.4414" y1="64.875" x2="158.4414" y2="212.9772" gradientTransform="matrix(1 0 0 -1 -8.3599 254.8047)">
					<stop  offset="0" style="stop-color:#339966"/>
					<stop  offset="1" style="stop-color:#5DC493"/>
				</linearGradient>
				<polygon fill="url(#SVGID_2_)" points="200,57.816 199.674,172.909 100.162,230.741 100.487,115.646 				"/>
			</g>
		</g>
	</g>
	<g>
		<g>
			<polygon fill="#5DC493" points="199.998,57.828 100.486,115.657 0.325,57.829 99.836,0 			"/>
		</g>
	</g>
</g>
<g>
	<line fill="none" stroke="#339966" stroke-miterlimit="10" x1="218.484" y1="183.907" x2="218.159" y2="299"/>
	<g>
		
			<linearGradient id="SVGID_3_" gradientUnits="userSpaceOnUse" x1="176.6016" y1="9.8135" x2="176.6015" y2="205.2565" gradientTransform="matrix(1 0 0 -1 -8.3599 254.8047)">
			<stop  offset="0" style="stop-color:#339966"/>
			<stop  offset="1" style="stop-color:#5DC493"/>
		</linearGradient>
		<polygon fill="url(#SVGID_3_)" points="218.484,183.907 218.159,299 117.999,241.172 118.324,126.079 		"/>
	</g>
	<g>
		<g enable-background="new    ">
			<g>
				
					<linearGradient id="SVGID_4_" gradientUnits="userSpaceOnUse" x1="277.957" y1="30.3276" x2="269.9571" y2="93.3272" gradientTransform="matrix(1 0 0 -1 -8.3599 254.8047)">
					<stop  offset="0" style="stop-color:#339966"/>
					<stop  offset="1" style="stop-color:#5DC493"/>
				</linearGradient>
				<polygon fill="url(#SVGID_4_)" points="317.999,126.066 317.673,241.159 218.161,298.991 218.486,183.896 				"/>
			</g>
		</g>
	</g>
	<g>
		<g>
			<polygon fill="#5DC493" points="317.997,126.078 218.484,183.907 118.324,126.079 217.835,68.25 			"/>
		</g>
	</g>
</g>
<g>
	<line fill="none" stroke="#339966" stroke-miterlimit="10" x1="-15.029" y1="183.907" x2="-15.354" y2="299"/>
	<g>
		
			<linearGradient id="SVGID_5_" gradientUnits="userSpaceOnUse" x1="-56.9121" y1="9.8135" x2="-56.9121" y2="205.2565" gradientTransform="matrix(1 0 0 -1 -8.3599 254.8047)">
			<stop  offset="0" style="stop-color:#339966"/>
			<stop  offset="1" style="stop-color:#5DC493"/>
		</linearGradient>
		<polygon fill="url(#SVGID_5_)" points="-15.029,183.907 -15.354,299 -115.514,241.172 -115.189,126.079 		"/>
	</g>
	<g>
		<g enable-background="new    ">
			<g>
				
					<linearGradient id="SVGID_6_" gradientUnits="userSpaceOnUse" x1="42.9263" y1="19.375" x2="42.9263" y2="201.1503" gradientTransform="matrix(1 0 0 -1 -8.3599 254.8047)">
					<stop  offset="0" style="stop-color:#339966"/>
					<stop  offset="1" style="stop-color:#5DC493"/>
				</linearGradient>
				<polygon fill="url(#SVGID_6_)" points="84.486,126.066 84.16,241.159 -15.352,298.991 -15.027,183.896 				"/>
			</g>
		</g>
	</g>
	<g>
		<g>
			<polygon fill="#5DC493" points="84.484,126.078 -15.029,183.907 -115.189,126.079 -15.678,68.25 			"/>
		</g>
	</g>
</g>
<g>
	<line fill="none" stroke="#339966" stroke-miterlimit="10" x1="100.645" y1="250.491" x2="100.32" y2="365.584"/>
	<g>
		
			<linearGradient id="SVGID_7_" gradientUnits="userSpaceOnUse" x1="58.7617" y1="-56.7705" x2="58.7617" y2="138.6725" gradientTransform="matrix(1 0 0 -1 -8.3599 254.8047)">
			<stop  offset="0" style="stop-color:#339966"/>
			<stop  offset="1" style="stop-color:#5DC493"/>
		</linearGradient>
		<polygon fill="url(#SVGID_7_)" points="100.645,250.491 100.32,365.584 0.16,307.756 0.485,192.663 		"/>
	</g>
	<g>
		<g enable-background="new    ">
			<g>
				
					<linearGradient id="SVGID_8_" gradientUnits="userSpaceOnUse" x1="160.1191" y1="-36.2563" x2="152.1192" y2="26.7433" gradientTransform="matrix(1 0 0 -1 -8.3599 254.8047)">
					<stop  offset="0" style="stop-color:#339966"/>
					<stop  offset="1" style="stop-color:#5DC493"/>
				</linearGradient>
				<polygon fill="url(#SVGID_8_)" points="200.16,192.65 199.834,307.743 100.322,365.575 100.646,250.48 				"/>
			</g>
		</g>
	</g>
	<g>
		<g>
			<polygon fill="#5DC493" points="200.158,192.662 100.645,250.491 0.485,192.663 99.996,134.834 			"/>
		</g>
	</g>
</g>
</svg>
