<svg xmlns="http://www.w3.org/2000/svg" width="200" height="45" viewBox="0 0 200 45" xmlns:xlink="http://www.w3.org/1999/xlink">
  <defs>
    <polygon id="a" points="44.624 39.05 0 39.05 0 19.618 0 .185 44.624 .185"/>
  </defs>
  <g fill="none" fill-rule="evenodd">
    <polyline fill="#000106" points="59.822 18.723 62.961 8.548 67.087 8.548 70.201 18.723 73.719 8.548 77.997 8.548 71.821 26.239 68.884 26.239 65.011 13.939 61.163 26.239 58.227 26.239 52.05 8.548 56.328 8.548 59.822 18.723"/>
    <polygon fill="#000106" points="80.098 26.239 84.048 26.239 84.048 8.548 80.098 8.548"/>
    <path fill="#000106" d="M88.4013023,8.54830448 L92.3505116,8.54830448 L92.3505116,15.8120475 L99.0334884,8.54830448 L103.919256,8.54830448 L96.8818605,16.3687652 C97.4893023,17.2128631 98.6115349,18.7859207 100.248558,21.0890542 C101.885395,23.3921877 103.109209,25.1092145 103.919256,26.2393905 L99.312,26.2393905 L94.1224186,19.2540993 L92.3505116,21.2281872 L92.3505116,26.2393905 L88.4013023,26.2393905 L88.4013023,8.54830448"/>
    <polygon fill="#000106" points="106.375 26.239 110.324 26.239 110.324 8.548 106.375 8.548"/>
    <polyline fill="#000106" points="130.524 15.103 125.74 24.771 123.386 24.771 118.626 15.103 118.626 26.239 114.678 26.239 114.678 8.548 120.019 8.548 124.575 18.267 129.157 8.548 134.473 8.548 134.473 26.239 130.524 26.239 130.524 15.103"/>
    <polyline fill="#000106" points="151.586 8.548 151.586 12.066 142.777 12.066 142.777 15.711 150.7 15.711 150.7 19.077 142.777 19.077 142.777 22.747 151.865 22.747 151.865 26.239 138.828 26.239 138.828 8.548 151.586 8.548"/>
    <path fill="#000106" d="M166.002605,21.3801545 C166.972837,20.4689083 167.458233,19.1445414 167.458233,17.4064959 C167.458233,15.6688224 166.972837,14.3314351 166.002605,13.395078 C165.032,12.4585348 163.542698,11.9903563 161.534512,11.9903563 L159.332093,11.9903563 L159.332093,22.7467449 L161.838326,22.7467449 C163.643907,22.7467449 165.032,22.2912148 166.002605,21.3801545 Z M168.901209,10.8640864 C170.588465,12.4079411 171.432558,14.555201 171.432558,17.3053083 C171.432558,20.0557877 170.60986,22.2322507 168.964465,23.8350694 C167.31907,25.4382601 164.808558,26.2393905 161.433302,26.2393905 L155.383256,26.2393905 L155.383256,8.54830448 L161.635907,8.54830448 C164.791442,8.54830448 167.213209,9.32023179 168.901209,10.8640864 L168.901209,10.8640864 Z"/>
    <polygon fill="#000106" points="174.85 26.239 178.799 26.239 178.799 8.548 174.85 8.548"/>
    <path fill="#000106" d="M190.418605 13.8126628L188.189767 18.9503506 192.621395 18.9503506 190.418605 13.8126628zM195.76 26.2393905L194.113488 22.4176992 186.697674 22.4176992 185.051349 26.2393905 180.849116 26.2393905 188.494884 8.54830448 192.316279 8.54830448 199.96093 26.2393905 195.76 26.2393905 195.76 26.2393905zM63.6057674 36.9064959C63.6057674 35.1349692 62.5905116 34.2490199 60.560186 34.2490199L59.2532093 34.2490199 59.2532093 39.5529976 60.704186 39.5529976C61.6416744 39.5529976 62.359814 39.3296037 62.8582326 38.8830019 63.3566512 38.4364001 63.6057674 37.7775647 63.6057674 36.9064959zM63.8052093 34.055201C64.5506977 34.7307769 64.9237209 35.6701102 64.9237209 36.8732007 64.9237209 38.0764773 64.5618605 39.028831 63.8383256 39.7300758 63.1146047 40.4313206 62.0072558 40.7819431 60.5157209 40.7819431L57.9464186 40.7819431 57.9464186 33.0422092 60.6044651 33.0422092C61.9923721 33.0422092 63.0593488 33.3798111 63.8052093 34.055201L63.8052093 34.055201z"/>
    <polyline fill="#000106" points="77.106 33.042 77.106 34.271 72.975 34.271 72.975 36.32 76.686 36.32 76.686 37.482 72.975 37.482 72.975 39.553 77.239 39.553 77.239 40.782 71.668 40.782 71.668 33.042 77.106 33.042"/>
    <path fill="#000106" d="M85.711814,39.0104164 C86.0662326,39.423723 86.5460465,39.6303763 87.1516279,39.6303763 C87.7568372,39.6303763 88.2368372,39.423723 88.5914419,39.0104164 C88.9456744,38.5969237 89.1229767,38.0357419 89.1229767,37.3272428 L89.1229767,33.0422092 L90.4299535,33.0422092 L90.4299535,37.3826728 C90.4299535,38.4974102 90.1233488,39.3554586 89.5106977,39.9570039 C88.8976744,40.5587352 88.1112558,40.8595078 87.1516279,40.8595078 C86.1916279,40.8595078 85.4053953,40.5587352 84.7925581,39.9570039 C84.1795349,39.3554586 83.8733023,38.4974102 83.8733023,37.3826728 L83.8733023,33.0422092 L85.1802791,33.0422092 L85.1802791,37.3272428 C85.1802791,38.0357419 85.3573953,38.5969237 85.711814,39.0104164"/>
    <polyline fill="#000106" points="100.464 34.238 100.464 40.782 99.157 40.782 99.157 34.238 96.809 34.238 96.809 33.042 102.812 33.042 102.812 34.238 100.464 34.238"/>
    <path fill="#000106" d="M111.63293 34.0607812C111.252651 34.0607812 110.941023 34.13816 110.697302 34.2932895 110.453581 34.4482329 110.331721 34.6827872 110.331721 34.9963943 110.331721 35.3101874 110.453581 35.5499499 110.697302 35.7162398 110.941023 35.8821577 111.459535 36.061282 112.253209 36.2530548 113.046884 36.4453856 113.645023 36.7147231 114.047442 37.0614394 114.44986 37.4085277 114.650977 37.9194878 114.650977 38.5950637 114.650977 39.2704536 114.396279 39.818615 113.886884 40.2393619 113.377302 40.6601087 112.709209 40.8706682 111.882233 40.8706682 110.671256 40.8706682 109.597023 40.4534554 108.659349 39.6192159L109.478884 38.633753C110.261395 39.3132351 111.073674 39.6525111 111.915535 39.6525111 112.336372 39.6525111 112.670512 39.5621119 112.917953 39.3813135 113.165209 39.2005151 113.28893 38.9603806 113.28893 38.661654 113.28893 38.3625554 113.172651 38.1300472 112.939907 37.9639433 112.707349 37.7978395 112.306605 37.6466161 111.738419 37.5099013 111.169674 37.3733724 110.737674 37.248004 110.442605 37.133424 110.147163 37.0192159 109.885023 36.8696666 109.656186 36.6851481 109.19814 36.3380598 108.969488 35.806639 108.969488 35.0905137 108.969488 34.3745743 109.229767 33.8226928 109.750326 33.4352411 110.270884 33.0476034 110.914977 32.8537845 111.682977 32.8537845 112.177488 32.8537845 112.668651 32.9350694 113.155907 33.0974531 113.643163 33.2600229 114.064186 33.488811 114.418419 33.7840034L113.720744 34.7694663C113.491907 34.562813 113.181767 34.392803 112.790512 34.2599943 112.39907 34.1271856 112.013209 34.0607812 111.63293 34.0607812M124.86214 39.5972671C125.312558 39.5972671 125.700093 39.5215625 126.025116 39.3701531 126.349953 39.2189297 126.689488 38.9771212 127.043907 38.6449134L127.885767 39.508542C127.066047 40.4164401 126.07107 40.8706682 124.901023 40.8706682 123.730605 40.8706682 122.759628 40.4940049 121.988279 39.7410502 121.216558 38.9880956 120.830884 38.0357419 120.830884 36.8843611 120.830884 35.7326084 121.224 34.7731864 122.010419 34.0053513 122.796651 33.2377021 123.789581 32.8537845 124.989395 32.8537845 126.189395 32.8537845 127.191628 33.2968522 127.996279 34.1826155L127.165953 35.0905137C126.796465 34.7361711 126.447628 34.4889684 126.119256 34.3487194 125.790512 34.2084705 125.404837 34.13816 124.96186 34.13816 124.179163 34.13816 123.522233 34.3913149 122.990512 34.8966948 122.458977 35.4024467 122.193116 36.0484476 122.193116 36.8345114 122.193116 37.6207612 122.45693 38.2777364 122.98493 38.8054371 123.512744 39.3333238 124.138419 39.5972671 124.86214 39.5972671"/>
    <polyline fill="#000106" points="134.542 40.782 134.542 33.042 135.849 33.042 135.849 36.397 139.692 36.397 139.692 33.042 140.999 33.042 140.999 40.782 139.692 40.782 139.692 37.615 135.849 37.615 135.849 40.782 134.542 40.782"/>
    <polyline fill="#000106" points="148.209 40.782 148.209 33.042 149.516 33.042 149.516 39.542 153.048 39.542 153.048 40.782 148.209 40.782"/>
    <path fill="#000106" d="M163.979535,37.814394 L162.572837,34.6254972 L161.166512,37.814394 L163.979535,37.814394 Z M160.634791,39.0213908 L159.859535,40.7819431 L158.464,40.7819431 L161.875163,33.0422092 L163.270698,33.0422092 L166.68186,40.7819431 L165.286326,40.7819431 L164.51107,39.0213908 L160.634791,39.0213908 L160.634791,39.0213908 Z"/>
    <polyline fill="#000106" points="178.621 33.042 179.928 33.042 179.928 40.782 178.51 40.782 174.124 35.135 174.124 40.782 172.817 40.782 172.817 33.042 174.124 33.042 178.621 38.822 178.621 33.042"/>
    <path fill="#000106" d="M192.796279 36.9064959C192.796279 35.1349692 191.782326 34.2490199 189.750698 34.2490199L188.444651 34.2490199 188.444651 39.5529976 189.895814 39.5529976C190.833488 39.5529976 191.551628 39.3296037 192.050233 38.8830019 192.548837 38.4364001 192.796279 37.7775647 192.796279 36.9064959zM192.997209 34.055201C193.741395 34.7307769 194.115349 35.6701102 194.115349 36.8732007 194.115349 38.0764773 193.752558 39.028831 193.028837 39.7300758 192.305116 40.4313206 191.19814 40.7819431 189.707907 40.7819431L187.138605 40.7819431 187.138605 33.0422092 189.795349 33.0422092C191.183256 33.0422092 192.251163 33.3798111 192.997209 34.055201L192.997209 34.055201zM24.2498605 36.1079697C30.9136744 35.1664043 36.0396279 29.4422378 36.0396279 22.5201889 36.0396279 18.3149521 34.1473488 14.5522249 31.168186 12.0346258L24.2498605 18.9514666 24.2498605 36.1079697"/>
    <g transform="translate(0 5.766)">
      <mask id="b" fill="white">
        <use xlink:href="#a"/>
      </mask>
      <path fill="#000106" d="M20.3743256,30.3417656 L20.3743256,13.1852626 L13.456186,6.26842181 C10.4770233,8.78602089 8.58474419,12.548748 8.58474419,16.7539848 C8.58474419,23.6760338 13.7106977,29.4002003 20.3743256,30.3417656" mask="url(#b)"/>
      <path fill="#000106" d="M34.2418605,4.82668479 C37.4284651,8.01260552 39.1834419,12.2485334 39.1834419,16.7539848 C39.1834419,21.2594363 37.4284651,25.4953641 34.2418605,28.6812849 C31.0554419,31.8670196 26.8186047,33.6216197 22.312186,33.6216197 C17.8055814,33.6216197 13.5689302,31.8670196 10.3823256,28.6812849 C7.19572093,25.4953641 5.44093023,21.2594363 5.44093023,16.7539848 C5.44093023,12.2485334 7.19572093,8.01260552 10.3823256,4.82668479 C10.655814,4.55325512 10.9376744,4.29117184 11.2262326,4.03894692 L7.37190698,0.185448562 C7.08706977,0.442695665 6.808,0.70738303 6.53506977,0.980254686 C4.48688372,3.02800114 2.87851163,5.41353556 1.75460465,8.07008156 C0.590325581,10.8220489 0,13.7436543 0,16.7539848 C0,19.7643154 0.590325581,22.6859207 1.75460465,25.4378881 C2.87851163,28.0944341 4.48688372,30.4797825 6.53506977,32.527715 C8.58325581,34.5754614 10.9691163,36.1834883 13.6264186,37.3071541 C16.3789767,38.4711833 19.3012093,39.0613822 22.312186,39.0613822 C25.3231628,39.0613822 28.2453953,38.4711833 30.9979535,37.3071541 C33.6550698,36.1834883 36.0411163,34.5754614 38.0893023,32.527715 C40.1374884,30.4797825 41.7458605,28.0944341 42.8697674,25.4378881 C44.0340465,22.6859207 44.6243721,19.7643154 44.6243721,16.7539848 C44.6243721,13.7436543 44.0340465,10.8220489 42.8697674,8.07008156 C41.7458605,5.41353556 40.1374884,3.02800114 38.0893023,0.980254686 C37.8163721,0.70738303 37.5371163,0.442695665 37.2524651,0.185448562 L33.3981395,4.03894692 C33.6866977,4.29117184 33.9683721,4.55325512 34.2418605,4.82668479" mask="url(#b)"/>
    </g>
    <path fill="#000106" d="M22.312186,0.0894691658 C26.1527442,0.0894691658 29.2660465,3.20210331 29.2660465,7.04183717 C29.2660465,10.881571 26.1527442,13.9942052 22.312186,13.9942052 C18.4716279,13.9942052 15.3583256,10.881571 15.3583256,7.04183717 C15.3583256,3.20210331 18.4716279,0.0894691658 22.312186,0.0894691658"/>
  </g>
</svg>
