<svg xmlns="http://www.w3.org/2000/svg" width="200" height="45" viewBox="0 0 200 45" xmlns:xlink="http://www.w3.org/1999/xlink">
  <defs>
    <polygon id="a" points="44.624 39.02 0 39.02 0 19.603 0 .185 44.624 .185"/>
  </defs>
  <g fill="none" fill-rule="evenodd">
    <polyline fill="#FFFFFF" points="59.822 18.708 62.961 8.542 67.087 8.542 70.201 18.708 73.719 8.542 77.997 8.542 71.821 26.219 68.884 26.219 65.011 13.928 61.163 26.219 58.227 26.219 52.05 8.542 56.328 8.542 59.822 18.708"/>
    <polygon fill="#FFFFFF" points="80.098 26.219 84.048 26.219 84.048 8.542 80.098 8.542"/>
    <path fill="#FFFFFF" d="M88.4013023,8.54175071 L92.3505116,8.54175071 L92.3505116,15.7999248 L99.0334884,8.54175071 L103.919256,8.54175071 L96.8818605,16.3562157 C97.4893023,17.1996664 98.6115349,18.771518 100.248558,21.0728858 C101.885395,23.3742535 103.109209,25.0899639 103.919256,26.2192734 L99.312,26.2192734 L94.1224186,19.2393377 L92.3505116,21.211912 L92.3505116,26.2192734 L88.4013023,26.2192734 L88.4013023,8.54175071"/>
    <polygon fill="#FFFFFF" points="106.375 26.219 110.324 26.219 110.324 8.542 106.375 8.542"/>
    <polyline fill="#FFFFFF" points="130.524 15.092 125.74 24.752 123.386 24.752 118.626 15.092 118.626 26.219 114.678 26.219 114.678 8.542 120.019 8.542 124.575 18.253 129.157 8.542 134.473 8.542 134.473 26.219 130.524 26.219 130.524 15.092"/>
    <polyline fill="#FFFFFF" points="151.586 8.542 151.586 12.057 142.777 12.057 142.777 15.699 150.7 15.699 150.7 19.062 142.777 19.062 142.777 22.729 151.865 22.729 151.865 26.219 138.828 26.219 138.828 8.542 151.586 8.542"/>
    <path fill="#FFFFFF" d="M166.002605,21.3637629 C166.972837,20.4532153 167.458233,19.1298638 167.458233,17.3931508 C167.458233,15.6568095 166.972837,14.3204476 166.002605,13.3848083 C165.032,12.4489832 163.542698,11.9811636 161.534512,11.9811636 L159.332093,11.9811636 L159.332093,22.7293055 L161.838326,22.7293055 C163.643907,22.7293055 165.032,22.2741246 166.002605,21.3637629 Z M168.901209,10.8557572 C170.588465,12.3984282 171.432558,14.5440419 171.432558,17.2920408 C171.432558,20.0404114 170.60986,22.2152058 168.964465,23.8167956 C167.31907,25.4187572 164.808558,26.2192734 161.433302,26.2192734 L155.383256,26.2192734 L155.383256,8.54175071 L161.635907,8.54175071 C164.791442,8.54175071 167.213209,9.3130862 168.901209,10.8557572 L168.901209,10.8557572 Z"/>
    <polygon fill="#FFFFFF" points="174.85 26.219 178.799 26.219 178.799 8.542 174.85 8.542"/>
    <path fill="#FFFFFF" d="M190.418605 13.8020729L188.189767 18.9358218 192.621395 18.9358218 190.418605 13.8020729zM195.76 26.2192734L194.113488 22.4005121 186.697674 22.4005121 185.051349 26.2192734 180.849116 26.2192734 188.494884 8.54175071 192.316279 8.54175071 199.96093 26.2192734 195.76 26.2192734 195.76 26.2192734zM63.6057674 36.8782006C63.6057674 35.1080321 62.5905116 34.222762 60.560186 34.222762L59.2532093 34.222762 59.2532093 39.5226733 60.704186 39.5226733C61.6416744 39.5226733 62.359814 39.2994506 62.8582326 38.8531912 63.3566512 38.4069318 63.6057674 37.7486016 63.6057674 36.8782006zM63.8052093 34.0290918C64.5506977 34.7041497 64.9237209 35.6427628 64.9237209 36.844931 64.9237209 38.047285 64.5618605 38.9989086 63.8383256 39.6996158 63.1146047 40.400323 62.0072558 40.7506765 60.5157209 40.7506765L57.9464186 40.7506765 57.9464186 33.0168765 60.6044651 33.0168765C61.9923721 33.0168765 63.0593488 33.3542197 63.8052093 34.0290918L63.8052093 34.0290918z"/>
    <polyline fill="#FFFFFF" points="77.106 33.017 77.106 34.245 72.975 34.245 72.975 36.292 76.686 36.292 76.686 37.454 72.975 37.454 72.975 39.523 77.239 39.523 77.239 40.751 71.668 40.751 71.668 33.017 77.106 33.017"/>
    <path fill="#FFFFFF" d="M85.711814,38.9805081 C86.0662326,39.3934978 86.5460465,39.5999927 87.1516279,39.5999927 C87.7568372,39.5999927 88.2368372,39.3934978 88.5914419,38.9805081 C88.9456744,38.5673324 89.1229767,38.0065808 89.1229767,37.2986249 L89.1229767,33.0168765 L90.4299535,33.0168765 L90.4299535,37.3540124 C90.4299535,38.4678952 90.1233488,39.3252857 89.5106977,39.9263698 C88.8976744,40.5276398 88.1112558,40.8281818 87.1516279,40.8281818 C86.1916279,40.8281818 85.4053953,40.5276398 84.7925581,39.9263698 C84.1795349,39.3252857 83.8733023,38.4678952 83.8733023,37.3540124 L83.8733023,33.0168765 L85.1802791,33.0168765 L85.1802791,37.2986249 C85.1802791,38.0065808 85.3573953,38.5673324 85.711814,38.9805081"/>
    <polyline fill="#FFFFFF" points="100.464 34.212 100.464 40.751 99.157 40.751 99.157 34.212 96.809 34.212 96.809 33.017 102.812 33.017 102.812 34.212 100.464 34.212"/>
    <path fill="#FFFFFF" d="M111.63293 34.0346677C111.252651 34.0346677 110.941023 34.1119871 110.697302 34.2669976 110.453581 34.4218223 110.331721 34.6561968 110.331721 34.9695635 110.331721 35.283116 110.453581 35.5226947 110.697302 35.6888571 110.941023 35.8546477 111.459535 36.0336347 112.253209 36.2252605 113.046884 36.4174438 113.645023 36.6865749 114.047442 37.0330253 114.44986 37.3798475 114.650977 37.8904158 114.650977 38.5654738 114.650977 39.2403459 114.396279 39.788087 113.886884 40.2085113 113.377302 40.6289356 112.709209 40.8393337 111.882233 40.8393337 110.671256 40.8393337 109.597023 40.4224408 108.659349 39.5888408L109.478884 38.6041335C110.261395 39.2830946 111.073674 39.6221105 111.915535 39.6221105 112.336372 39.6221105 112.670512 39.5317806 112.917953 39.3511208 113.165209 39.170461 113.28893 38.9305106 113.28893 38.6320131 113.28893 38.3331438 113.172651 38.1008139 112.939907 37.9348373 112.707349 37.7688608 112.306605 37.6177534 111.738419 37.4811434 111.169674 37.3447192 110.737674 37.2194469 110.442605 37.1049547 110.147163 36.9908342 109.885023 36.8413996 109.656186 36.6570225 109.19814 36.3102003 108.969488 35.7791869 108.969488 35.0636106 108.969488 34.3482202 109.229767 33.7967618 109.750326 33.4096071 110.270884 33.0222666 110.914977 32.8285963 111.682977 32.8285963 112.177488 32.8285963 112.668651 32.9098189 113.155907 33.0720781 113.643163 33.2345233 114.064186 33.4631359 114.418419 33.7581021L113.720744 34.7428094C113.491907 34.5363145 113.181767 34.3664349 112.790512 34.233728 112.39907 34.1010211 112.013209 34.0346677 111.63293 34.0346677M124.86214 39.5669089C125.312558 39.5669089 125.700093 39.4912623 126.025116 39.339969 126.349953 39.1888616 126.689488 38.9472384 127.043907 38.6152853L127.885767 39.4782518C127.066047 40.3854538 126.07107 40.8393337 124.901023 40.8393337 123.730605 40.8393337 122.759628 40.4629591 121.988279 39.7105817 121.216558 38.9582044 120.830884 38.0065808 120.830884 36.8560828 120.830884 35.7052131 121.224 34.7465267 122.010419 33.9792802 122.796651 33.2122196 123.789581 32.8285963 124.989395 32.8285963 126.189395 32.8285963 127.191628 33.2713243 127.996279 34.1564086L127.165953 35.0636106C126.796465 34.7095398 126.447628 34.4625265 126.119256 34.3223851 125.790512 34.1822437 125.404837 34.1119871 124.96186 34.1119871 124.179163 34.1119871 123.522233 34.364948 122.990512 34.8699404 122.458977 35.3753045 122.193116 36.0208101 122.193116 36.8062713 122.193116 37.5919183 122.45693 38.2483899 122.98493 38.7756859 123.512744 39.3031679 124.138419 39.5669089 124.86214 39.5669089"/>
    <polyline fill="#FFFFFF" points="134.542 40.751 134.542 33.017 135.849 33.017 135.849 36.369 139.692 36.369 139.692 33.017 140.999 33.017 140.999 40.751 139.692 40.751 139.692 37.586 135.849 37.586 135.849 40.751 134.542 40.751"/>
    <polyline fill="#FFFFFF" points="148.209 40.751 148.209 33.017 149.516 33.017 149.516 39.512 153.048 39.512 153.048 40.751 148.209 40.751"/>
    <path fill="#FFFFFF" d="M163.979535,37.7854027 L162.572837,34.5989507 L161.166512,37.7854027 L163.979535,37.7854027 Z M160.634791,38.991474 L159.859535,40.7506765 L158.464,40.7506765 L161.875163,33.0168765 L163.270698,33.0168765 L166.68186,40.7506765 L165.286326,40.7506765 L164.51107,38.991474 L160.634791,38.991474 L160.634791,38.991474 Z"/>
    <polyline fill="#FFFFFF" points="178.621 33.017 179.928 33.017 179.928 40.751 178.51 40.751 174.124 35.108 174.124 40.751 172.817 40.751 172.817 33.017 174.124 33.017 178.621 38.792 178.621 33.017"/>
    <path fill="#FFFFFF" d="M192.796279 36.8782006C192.796279 35.1080321 191.782326 34.222762 189.750698 34.222762L188.444651 34.222762 188.444651 39.5226733 189.895814 39.5226733C190.833488 39.5226733 191.551628 39.2994506 192.050233 38.8531912 192.548837 38.4069318 192.796279 37.7486016 192.796279 36.8782006zM192.997209 34.0290918C193.741395 34.7041497 194.115349 35.6427628 194.115349 36.844931 194.115349 38.047285 193.752558 38.9989086 193.028837 39.6996158 192.305116 40.400323 191.19814 40.7506765 189.707907 40.7506765L187.138605 40.7506765 187.138605 33.0168765 189.795349 33.0168765C191.183256 33.0168765 192.251163 33.3542197 192.997209 34.0290918L192.997209 34.0290918zM24.2498605 36.0802866C30.9136744 35.1394431 36.0396279 29.4196652 36.0396279 22.5029232 36.0396279 18.3009104 34.1473488 14.5410681 31.168186 12.0253992L24.2498605 18.936937 24.2498605 36.0802866"/>
    <g transform="translate(0 5.762)">
      <mask id="b" fill="white">
        <use xlink:href="#a"/>
      </mask>
      <path fill="#FFFFFF" d="M20.3743256,30.3185034 L20.3743256,13.1751537 L13.456186,6.26361596 C10.4770233,8.77928487 8.58474419,12.5391272 8.58474419,16.74114 C8.58474419,23.6578819 13.7106977,29.3776599 20.3743256,30.3185034" mask="url(#b)"/>
      <path fill="#FFFFFF" d="M34.2418605,4.82298429 C37.4284651,8.00646246 39.1834419,12.2391428 39.1834419,16.74114 C39.1834419,21.2431372 37.4284651,25.4758175 34.2418605,28.6592956 C31.0554419,31.8425879 26.8186047,33.5958428 22.312186,33.5958428 C17.8055814,33.5958428 13.5689302,31.8425879 10.3823256,28.6592956 C7.19572093,25.4758175 5.44093023,21.2431372 5.44093023,16.74114 C5.44093023,12.2391428 7.19572093,8.00646246 10.3823256,4.82298429 C10.655814,4.54976425 10.9376744,4.28788191 11.2262326,4.03585036 L7.37190698,0.185306383 C7.08706977,0.442356261 6.808,0.706840697 6.53506977,0.979503149 C4.48688372,3.02567965 2.87851163,5.40938513 1.75460465,8.06389443 C0.590325581,10.8137519 0,13.7331174 0,16.74114 C0,19.7491625 0.590325581,22.668528 1.75460465,25.4183855 C2.87851163,28.0728948 4.48688372,30.4564144 6.53506977,32.5027768 C8.58325581,34.5489533 10.9691163,36.1557474 13.6264186,37.2785516 C16.3789767,38.4416884 19.3012093,39.0314348 22.312186,39.0314348 C25.3231628,39.0314348 28.2453953,38.4416884 30.9979535,37.2785516 C33.6550698,36.1557474 36.0411163,34.5489533 38.0893023,32.5027768 C40.1374884,30.4564144 41.7458605,28.0728948 42.8697674,25.4183855 C44.0340465,22.668528 44.6243721,19.7491625 44.6243721,16.74114 C44.6243721,13.7331174 44.0340465,10.8137519 42.8697674,8.06389443 C41.7458605,5.40938513 40.1374884,3.02567965 38.0893023,0.979503149 C37.8163721,0.706840697 37.5371163,0.442356261 37.2524651,0.185306383 L33.3981395,4.03585036 C33.6866977,4.28788191 33.9683721,4.54976425 34.2418605,4.82298429" mask="url(#b)"/>
    </g>
    <path fill="#FFFFFF" d="M22.312186,0.089400572 C26.1527442,0.089400572 29.2660465,3.19964833 29.2660465,7.03643837 C29.2660465,10.8732284 26.1527442,13.9834762 22.312186,13.9834762 C18.4716279,13.9834762 15.3583256,10.8732284 15.3583256,7.03643837 C15.3583256,3.19964833 18.4716279,0.089400572 22.312186,0.089400572"/>
  </g>
</svg>
